<svg width="805" height="687" viewBox="0 0 805 687" fill="none" xmlns="http://www.w3.org/2000/svg">
<g filter="url(#filter0_d_138_3357)">
<path fill-rule="evenodd" clip-rule="evenodd" d="M465.083 623.994C360.991 634.779 247.784 676.672 167.006 610.097C70.4743 530.537 17.0956 398.246 42.5045 275.714C68.3774 150.943 169.849 49.5013 291.239 10.9958C397.394 -22.6773 499.2 45.093 596.03 100.132C681.231 148.562 773.661 201.183 794.419 297.01C814.987 391.96 763.575 487 694.654 555.429C635.011 614.647 548.656 615.336 465.083 623.994Z" stroke="#001B47" stroke-width="3"/>
<path fill-rule="evenodd" clip-rule="evenodd" d="M434.882 654.195C330.79 664.979 217.583 706.872 136.806 640.297C40.2738 560.737 -13.1048 428.446 12.304 305.914C38.177 181.143 139.648 79.7014 261.038 41.1958C367.193 7.52275 468.999 75.293 565.829 130.332C651.03 178.762 743.461 231.383 764.219 327.21C784.786 422.16 733.375 517.2 664.454 585.629C604.81 644.847 518.455 645.536 434.882 654.195Z" stroke="#001B47" stroke-width="3"/>
<path fill-rule="evenodd" clip-rule="evenodd" d="M419.064 653.77C321.885 663.838 216.196 702.947 140.783 640.796C50.6623 566.525 0.828521 443.026 24.55 328.638C48.7047 212.161 143.437 117.461 256.765 81.5146C355.871 50.0796 450.916 113.346 541.315 164.727C620.858 209.937 707.15 259.061 726.529 348.519C745.731 437.158 697.734 525.881 633.39 589.762C577.707 645.044 497.087 645.687 419.064 653.77Z" fill="#001B47"/>
<path fill-rule="evenodd" clip-rule="evenodd" d="M419.064 653.77C321.885 663.838 216.196 702.947 140.783 640.796C50.6623 566.525 0.828521 443.026 24.55 328.638C48.7047 212.161 143.437 117.461 256.765 81.5146C355.871 50.0796 450.916 113.346 541.315 164.727C620.858 209.937 707.15 259.061 726.529 348.519C745.731 437.158 697.734 525.881 633.39 589.762C577.707 645.044 497.087 645.687 419.064 653.77Z" fill="white" fill-opacity="0.05"/>
<path fill-rule="evenodd" clip-rule="evenodd" d="M419.064 653.77C321.885 663.838 216.196 702.947 140.783 640.796C50.6623 566.525 0.828521 443.026 24.55 328.638C48.7047 212.161 143.437 117.461 256.765 81.5146C355.871 50.0796 450.916 113.346 541.315 164.727C620.858 209.937 707.15 259.061 726.529 348.519C745.731 437.158 697.734 525.881 633.39 589.762C577.707 645.044 497.087 645.687 419.064 653.77Z" stroke="#001B47" stroke-width="3"/>
</g>
<defs>
<filter id="filter0_d_138_3357" x="0.499512" y="0.499756" width="804.002" height="686.122" filterUnits="userSpaceOnUse" color-interpolation-filters="sRGB">
<feFlood flood-opacity="0" result="BackgroundImageFix"/>
<feColorMatrix in="SourceAlpha" type="matrix" values="0 0 0 0 0 0 0 0 0 0 0 0 0 0 0 0 0 0 127 0" result="hardAlpha"/>
<feOffset dy="4"/>
<feGaussianBlur stdDeviation="2"/>
<feComposite in2="hardAlpha" operator="out"/>
<feColorMatrix type="matrix" values="0 0 0 0 0 0 0 0 0 0 0 0 0 0 0 0 0 0 0.25 0"/>
<feBlend mode="normal" in2="BackgroundImageFix" result="effect1_dropShadow_138_3357"/>
<feBlend mode="normal" in="SourceGraphic" in2="effect1_dropShadow_138_3357" result="shape"/>
</filter>
</defs>
</svg>
