<svg width="18" height="18" viewBox="0 0 18 18" fill="none" xmlns="http://www.w3.org/2000/svg">
<path fill-rule="evenodd" clip-rule="evenodd" d="M9.00049 18C10.6264 18.0001 12.2219 17.5598 13.6176 16.7259C15.0133 15.8919 16.157 14.6955 16.9273 13.2636C17.6975 11.8318 18.0655 10.218 17.9921 8.59378C17.9187 6.96956 17.4067 5.39556 16.5105 4.039L9.35549 11.989C9.02128 12.3604 8.56016 12.5933 8.06287 12.6418C7.56558 12.6903 7.06816 12.5509 6.66849 12.251L3.40049 9.8C3.18832 9.64087 3.04805 9.40397 3.01054 9.14142C2.97304 8.87887 3.04136 8.61217 3.20049 8.4C3.35962 8.18783 3.59652 8.04756 3.85907 8.01005C4.12162 7.97254 4.38832 8.04087 4.60049 8.2L7.86849 10.651L15.2145 2.49C14.1503 1.47411 12.8533 0.734601 11.437 0.336222C10.0207 -0.0621564 8.52837 -0.107256 7.09062 0.204872C5.65287 0.517001 4.31356 1.17684 3.18996 2.12661C2.06636 3.07639 1.19273 4.28713 0.645571 5.65284C0.0984067 7.01855 -0.105607 8.49757 0.051393 9.96041C0.208393 11.4233 0.721619 12.8253 1.54613 14.0438C2.37065 15.2623 3.48131 16.2601 4.78087 16.9498C6.08042 17.6395 7.52925 18.0001 9.00049 18Z" fill="#2E8B57"/>
</svg>
