<svg width="16" height="14" viewBox="0 0 16 14" fill="none" xmlns="http://www.w3.org/2000/svg">
<path d="M0.05 1.555C0.150818 1.11324 0.398655 0.718813 0.752922 0.436308C1.10719 0.153804 1.54688 -3.04944e-05 2 4.53414e-09H14C14.4531 -3.04944e-05 14.8928 0.153804 15.2471 0.436308C15.6013 0.718813 15.8492 1.11324 15.95 1.555L8 6.414L0.05 1.555ZM0 2.697V9.801L5.803 6.243L0 2.697ZM6.761 6.83L0.191 10.856C0.353183 11.1985 0.609322 11.4878 0.929588 11.6904C1.24985 11.8929 1.62107 12.0003 2 12H8.256C8.08613 11.5182 7.99956 11.0109 8 10.5C7.99931 9.8431 8.14278 9.19405 8.42027 8.59863C8.69776 8.00321 9.10252 7.47594 9.606 7.054L9.239 6.829L8 7.586L6.761 6.83ZM16 2.697V7.671C15.5781 7.14912 15.0449 6.72821 14.4393 6.43908C13.8337 6.14995 13.1711 5.99993 12.5 6C11.8194 5.99947 11.1475 6.15333 10.535 6.45L10.197 6.243L16 2.697Z" fill="#2E8B57"/>
<path d="M16 10.5C16 11.4283 15.6313 12.3185 14.9749 12.9749C14.3185 13.6313 13.4283 14 12.5 14C11.5717 14 10.6815 13.6313 10.0251 12.9749C9.36875 12.3185 9 11.4283 9 10.5C9 9.57174 9.36875 8.6815 10.0251 8.02513C10.6815 7.36875 11.5717 7 12.5 7C13.4283 7 14.3185 7.36875 14.9749 8.02513C15.6313 8.6815 16 9.57174 16 10.5ZM14.007 8.821C13.9507 8.78724 13.8882 8.76491 13.8233 8.75528C13.7583 8.74565 13.6921 8.74892 13.6284 8.76489C13.5647 8.78086 13.5047 8.80923 13.452 8.84837C13.3993 8.88751 13.3547 8.93665 13.321 8.993L12.151 10.943L11.604 10.396C11.5101 10.3021 11.3828 10.2494 11.25 10.2494C11.1172 10.2494 10.9899 10.3021 10.896 10.396C10.8021 10.4899 10.7494 10.6172 10.7494 10.75C10.7494 10.8828 10.8021 11.0101 10.896 11.104L11.67 11.877C11.7506 11.9577 11.8485 12.019 11.9563 12.0562C12.0641 12.0934 12.179 12.1055 12.2922 12.0916C12.4053 12.0777 12.5139 12.0382 12.6095 11.9761C12.7051 11.9139 12.7853 11.8308 12.844 11.733L14.179 9.507C14.2128 9.45067 14.2351 9.38823 14.2447 9.32327C14.2543 9.2583 14.2511 9.19207 14.2351 9.12837C14.2191 9.06466 14.1908 9.00473 14.1516 8.95199C14.1125 8.89925 14.0633 8.85474 14.007 8.821Z" fill="#2E8B57"/>
</svg>
