<svg width="1844" height="1572" viewBox="0 0 1844 1572" fill="none" xmlns="http://www.w3.org/2000/svg">
<g filter="url(#filter0_d_158_2909)">
<path fill-rule="evenodd" clip-rule="evenodd" d="M1066.58 1438.94C826.105 1463.85 564.572 1560.64 377.959 1406.83C154.949 1223.03 31.6331 917.414 90.333 634.337C150.105 346.091 384.525 111.738 664.962 22.782C910.204 -55.0101 1145.4 101.554 1369.1 228.707C1565.93 340.588 1779.46 462.155 1827.42 683.536C1874.93 902.891 1756.16 1122.45 1596.94 1280.54C1459.15 1417.34 1259.65 1418.94 1066.58 1438.94Z" stroke="#001B47" stroke-width="3"/>
<path fill-rule="evenodd" clip-rule="evenodd" d="M996.81 1508.71C756.335 1533.62 494.802 1630.41 308.189 1476.6C85.1798 1292.8 -38.1364 987.183 20.5635 704.106C80.3356 415.86 314.756 181.507 595.193 92.551C840.434 14.759 1075.63 171.323 1299.33 298.476C1496.16 410.358 1709.69 531.924 1757.65 753.305C1805.16 972.66 1686.39 1192.22 1527.17 1350.31C1389.38 1487.11 1189.88 1488.71 996.81 1508.71Z" stroke="#001B47" stroke-width="3"/>
<path fill-rule="evenodd" clip-rule="evenodd" d="M960.267 1507.73C735.763 1530.99 491.598 1621.34 317.378 1477.76C109.179 1306.17 -5.94723 1020.87 48.8544 756.604C104.657 487.516 323.509 268.739 585.322 185.696C814.276 113.074 1033.85 259.232 1242.69 377.934C1426.45 482.379 1625.81 595.866 1670.58 802.533C1714.94 1007.31 1604.05 1212.28 1455.4 1359.86C1326.77 1487.57 1140.52 1489.05 960.267 1507.73Z" fill="#001B47"/>
<path fill-rule="evenodd" clip-rule="evenodd" d="M960.267 1507.73C735.763 1530.99 491.598 1621.34 317.378 1477.76C109.179 1306.17 -5.94723 1020.87 48.8544 756.604C104.657 487.516 323.509 268.739 585.322 185.696C814.276 113.074 1033.85 259.232 1242.69 377.934C1426.45 482.379 1625.81 595.866 1670.58 802.533C1714.94 1007.31 1604.05 1212.28 1455.4 1359.86C1326.77 1487.57 1140.52 1489.05 960.267 1507.73Z" fill="white" fill-opacity="0.05"/>
<path fill-rule="evenodd" clip-rule="evenodd" d="M960.267 1507.73C735.763 1530.99 491.598 1621.34 317.378 1477.76C109.179 1306.17 -5.94723 1020.87 48.8544 756.604C104.657 487.516 323.509 268.739 585.322 185.696C814.276 113.074 1033.85 259.232 1242.69 377.934C1426.45 482.379 1625.81 595.866 1670.58 802.533C1714.94 1007.31 1604.05 1212.28 1455.4 1359.86C1326.77 1487.57 1140.52 1489.05 960.267 1507.73Z" stroke="#001B47" stroke-width="3"/>
<path d="M277.85 761L257.76 738.74V761H251.39V712.21H257.76V734.82L277.92 712.21H285.97L263.85 736.64L286.18 761H277.85ZM310.024 761.63C306.431 761.63 303.164 760.813 300.224 759.18C297.331 757.547 295.044 755.237 293.364 752.25C291.731 749.217 290.914 745.717 290.914 741.75C290.914 737.83 291.754 734.377 293.434 731.39C295.161 728.357 297.494 726.047 300.434 724.46C303.374 722.827 306.664 722.01 310.304 722.01C313.944 722.01 317.234 722.827 320.174 724.46C323.114 726.047 325.424 728.333 327.104 731.32C328.831 734.307 329.694 737.783 329.694 741.75C329.694 745.717 328.808 749.217 327.034 752.25C325.308 755.237 322.951 757.547 319.964 759.18C316.978 760.813 313.664 761.63 310.024 761.63ZM310.024 756.03C312.311 756.03 314.458 755.493 316.464 754.42C318.471 753.347 320.081 751.737 321.294 749.59C322.554 747.443 323.184 744.83 323.184 741.75C323.184 738.67 322.578 736.057 321.364 733.91C320.151 731.763 318.564 730.177 316.604 729.15C314.644 728.077 312.521 727.54 310.234 727.54C307.901 727.54 305.754 728.077 303.794 729.15C301.881 730.177 300.341 731.763 299.174 733.91C298.008 736.057 297.424 738.67 297.424 741.75C297.424 744.877 297.984 747.513 299.104 749.66C300.271 751.807 301.811 753.417 303.724 754.49C305.638 755.517 307.738 756.03 310.024 756.03ZM384.2 721.94C387.186 721.94 389.846 722.57 392.18 723.83C394.513 725.043 396.356 726.887 397.71 729.36C399.063 731.833 399.74 734.843 399.74 738.39V761H393.44V739.3C393.44 735.473 392.483 732.557 390.57 730.55C388.703 728.497 386.16 727.47 382.94 727.47C379.626 727.47 376.99 728.543 375.03 730.69C373.07 732.79 372.09 735.847 372.09 739.86V761H365.79V739.3C365.79 735.473 364.833 732.557 362.92 730.55C361.053 728.497 358.51 727.47 355.29 727.47C351.976 727.47 349.34 728.543 347.38 730.69C345.42 732.79 344.44 735.847 344.44 739.86V761H338.07V722.64H344.44V728.17C345.7 726.163 347.38 724.623 349.48 723.55C351.626 722.477 353.983 721.94 356.55 721.94C359.77 721.94 362.616 722.663 365.09 724.11C367.563 725.557 369.406 727.68 370.62 730.48C371.693 727.773 373.466 725.673 375.94 724.18C378.413 722.687 381.166 721.94 384.2 721.94ZM407.809 741.68C407.809 737.76 408.602 734.33 410.189 731.39C411.775 728.403 413.945 726.093 416.699 724.46C419.499 722.827 422.602 722.01 426.009 722.01C429.369 722.01 432.285 722.733 434.759 724.18C437.232 725.627 439.075 727.447 440.289 729.64V722.64H446.729V761H440.289V753.86C439.029 756.1 437.139 757.967 434.619 759.46C432.145 760.907 429.252 761.63 425.939 761.63C422.532 761.63 419.452 760.79 416.699 759.11C413.945 757.43 411.775 755.073 410.189 752.04C408.602 749.007 407.809 745.553 407.809 741.68ZM440.289 741.75C440.289 738.857 439.705 736.337 438.539 734.19C437.372 732.043 435.785 730.41 433.779 729.29C431.819 728.123 429.649 727.54 427.269 727.54C424.889 727.54 422.719 728.1 420.759 729.22C418.799 730.34 417.235 731.973 416.069 734.12C414.902 736.267 414.319 738.787 414.319 741.68C414.319 744.62 414.902 747.187 416.069 749.38C417.235 751.527 418.799 753.183 420.759 754.35C422.719 755.47 424.889 756.03 427.269 756.03C429.649 756.03 431.819 755.47 433.779 754.35C435.785 753.183 437.372 751.527 438.539 749.38C439.705 747.187 440.289 744.643 440.289 741.75ZM478.914 761L463.864 744.06V761H457.494V709.2H463.864V739.65L478.634 722.64H487.524L469.464 741.75L487.594 761H478.914ZM491.139 741.68C491.139 737.76 491.932 734.33 493.519 731.39C495.106 728.403 497.276 726.093 500.029 724.46C502.829 722.827 505.932 722.01 509.339 722.01C512.699 722.01 515.616 722.733 518.089 724.18C520.562 725.627 522.406 727.447 523.619 729.64V722.64H530.059V761H523.619V753.86C522.359 756.1 520.469 757.967 517.949 759.46C515.476 760.907 512.582 761.63 509.269 761.63C505.862 761.63 502.782 760.79 500.029 759.11C497.276 757.43 495.106 755.073 493.519 752.04C491.932 749.007 491.139 745.553 491.139 741.68ZM523.619 741.75C523.619 738.857 523.036 736.337 521.869 734.19C520.702 732.043 519.116 730.41 517.109 729.29C515.149 728.123 512.979 727.54 510.599 727.54C508.219 727.54 506.049 728.1 504.089 729.22C502.129 730.34 500.566 731.973 499.399 734.12C498.232 736.267 497.649 738.787 497.649 741.68C497.649 744.62 498.232 747.187 499.399 749.38C500.566 751.527 502.129 753.183 504.089 754.35C506.049 755.47 508.219 756.03 510.599 756.03C512.979 756.03 515.149 755.47 517.109 754.35C519.116 753.183 520.702 751.527 521.869 749.38C523.036 747.187 523.619 744.643 523.619 741.75ZM544.114 716.41C542.9 716.41 541.874 715.99 541.034 715.15C540.194 714.31 539.774 713.283 539.774 712.07C539.774 710.857 540.194 709.83 541.034 708.99C541.874 708.15 542.9 707.73 544.114 707.73C545.28 707.73 546.26 708.15 547.054 708.99C547.894 709.83 548.314 710.857 548.314 712.07C548.314 713.283 547.894 714.31 547.054 715.15C546.26 715.99 545.28 716.41 544.114 716.41ZM547.194 722.64V761H540.824V722.64H547.194ZM580.002 716.41C578.789 716.41 577.762 715.99 576.922 715.15C576.082 714.31 575.662 713.283 575.662 712.07C575.662 710.857 576.082 709.83 576.922 708.99C577.762 708.15 578.789 707.73 580.002 707.73C581.169 707.73 582.149 708.15 582.942 708.99C583.782 709.83 584.202 710.857 584.202 712.07C584.202 713.283 583.782 714.31 582.942 715.15C582.149 715.99 581.169 716.41 580.002 716.41ZM583.082 722.64V761H576.712V722.64H583.082ZM607.519 761.63C604.579 761.63 601.942 761.14 599.609 760.16C597.275 759.133 595.432 757.733 594.079 755.96C592.725 754.14 591.979 752.063 591.839 749.73H598.419C598.605 751.643 599.492 753.207 601.079 754.42C602.712 755.633 604.835 756.24 607.449 756.24C609.875 756.24 611.789 755.703 613.189 754.63C614.589 753.557 615.289 752.203 615.289 750.57C615.289 748.89 614.542 747.653 613.049 746.86C611.555 746.02 609.245 745.203 606.119 744.41C603.272 743.663 600.939 742.917 599.119 742.17C597.345 741.377 595.805 740.233 594.499 738.74C593.239 737.2 592.609 735.193 592.609 732.72C592.609 730.76 593.192 728.963 594.359 727.33C595.525 725.697 597.182 724.413 599.329 723.48C601.475 722.5 603.925 722.01 606.679 722.01C610.925 722.01 614.355 723.083 616.969 725.23C619.582 727.377 620.982 730.317 621.169 734.05H614.799C614.659 732.043 613.842 730.433 612.349 729.22C610.902 728.007 608.942 727.4 606.469 727.4C604.182 727.4 602.362 727.89 601.009 728.87C599.655 729.85 598.979 731.133 598.979 732.72C598.979 733.98 599.375 735.03 600.169 735.87C601.009 736.663 602.035 737.317 603.249 737.83C604.509 738.297 606.235 738.833 608.429 739.44C611.182 740.187 613.422 740.933 615.149 741.68C616.875 742.38 618.345 743.453 619.559 744.9C620.819 746.347 621.472 748.237 621.519 750.57C621.519 752.67 620.935 754.56 619.769 756.24C618.602 757.92 616.945 759.25 614.799 760.23C612.699 761.163 610.272 761.63 607.519 761.63ZM662.753 761.63C659.813 761.63 657.177 761.14 654.843 760.16C652.51 759.133 650.667 757.733 649.313 755.96C647.96 754.14 647.213 752.063 647.073 749.73H653.653C653.84 751.643 654.727 753.207 656.313 754.42C657.947 755.633 660.07 756.24 662.683 756.24C665.11 756.24 667.023 755.703 668.423 754.63C669.823 753.557 670.523 752.203 670.523 750.57C670.523 748.89 669.777 747.653 668.283 746.86C666.79 746.02 664.48 745.203 661.353 744.41C658.507 743.663 656.173 742.917 654.353 742.17C652.58 741.377 651.04 740.233 649.733 738.74C648.473 737.2 647.843 735.193 647.843 732.72C647.843 730.76 648.427 728.963 649.593 727.33C650.76 725.697 652.417 724.413 654.563 723.48C656.71 722.5 659.16 722.01 661.913 722.01C666.16 722.01 669.59 723.083 672.203 725.23C674.817 727.377 676.217 730.317 676.403 734.05H670.033C669.893 732.043 669.077 730.433 667.583 729.22C666.137 728.007 664.177 727.4 661.703 727.4C659.417 727.4 657.597 727.89 656.243 728.87C654.89 729.85 654.213 731.133 654.213 732.72C654.213 733.98 654.61 735.03 655.403 735.87C656.243 736.663 657.27 737.317 658.483 737.83C659.743 738.297 661.47 738.833 663.663 739.44C666.417 740.187 668.657 740.933 670.383 741.68C672.11 742.38 673.58 743.453 674.793 744.9C676.053 746.347 676.707 748.237 676.753 750.57C676.753 752.67 676.17 754.56 675.003 756.24C673.837 757.92 672.18 759.25 670.033 760.23C667.933 761.163 665.507 761.63 662.753 761.63ZM720.745 740.35C720.745 741.563 720.675 742.847 720.535 744.2H689.875C690.109 747.98 691.392 750.943 693.725 753.09C696.105 755.19 698.975 756.24 702.335 756.24C705.089 756.24 707.375 755.61 709.195 754.35C711.062 753.043 712.369 751.317 713.115 749.17H719.975C718.949 752.857 716.895 755.867 713.815 758.2C710.735 760.487 706.909 761.63 702.335 761.63C698.695 761.63 695.429 760.813 692.535 759.18C689.689 757.547 687.449 755.237 685.815 752.25C684.182 749.217 683.365 745.717 683.365 741.75C683.365 737.783 684.159 734.307 685.745 731.32C687.332 728.333 689.549 726.047 692.395 724.46C695.289 722.827 698.602 722.01 702.335 722.01C705.975 722.01 709.195 722.803 711.995 724.39C714.795 725.977 716.942 728.17 718.435 730.97C719.975 733.723 720.745 736.85 720.745 740.35ZM714.165 739.02C714.165 736.593 713.629 734.517 712.555 732.79C711.482 731.017 710.012 729.687 708.145 728.8C706.325 727.867 704.295 727.4 702.055 727.4C698.835 727.4 696.082 728.427 693.795 730.48C691.555 732.533 690.272 735.38 689.945 739.02H714.165ZM726.774 741.75C726.774 737.783 727.567 734.33 729.154 731.39C730.74 728.403 732.934 726.093 735.734 724.46C738.58 722.827 741.824 722.01 745.464 722.01C750.177 722.01 754.05 723.153 757.084 725.44C760.164 727.727 762.194 730.9 763.174 734.96H756.314C755.66 732.627 754.377 730.783 752.464 729.43C750.597 728.077 748.264 727.4 745.464 727.4C741.824 727.4 738.884 728.66 736.644 731.18C734.404 733.653 733.284 737.177 733.284 741.75C733.284 746.37 734.404 749.94 736.644 752.46C738.884 754.98 741.824 756.24 745.464 756.24C748.264 756.24 750.597 755.587 752.464 754.28C754.33 752.973 755.614 751.107 756.314 748.68H763.174C762.147 752.6 760.094 755.75 757.014 758.13C753.934 760.463 750.084 761.63 745.464 761.63C741.824 761.63 738.58 760.813 735.734 759.18C732.934 757.547 730.74 755.237 729.154 752.25C727.567 749.263 726.774 745.763 726.774 741.75ZM805.693 722.64V761H799.323V755.33C798.11 757.29 796.407 758.83 794.213 759.95C792.067 761.023 789.687 761.56 787.073 761.56C784.087 761.56 781.403 760.953 779.023 759.74C776.643 758.48 774.753 756.613 773.353 754.14C772 751.667 771.323 748.657 771.323 745.11V722.64H777.623V744.27C777.623 748.05 778.58 750.967 780.493 753.02C782.407 755.027 785.02 756.03 788.333 756.03C791.74 756.03 794.423 754.98 796.383 752.88C798.343 750.78 799.323 747.723 799.323 743.71V722.64H805.693ZM822.819 728.87C823.939 726.677 825.525 724.973 827.579 723.76C829.679 722.547 832.222 721.94 835.209 721.94V728.52H833.529C826.389 728.52 822.819 732.393 822.819 740.14V761H816.449V722.64H822.819V728.87ZM877.562 740.35C877.562 741.563 877.492 742.847 877.352 744.2H846.692C846.925 747.98 848.209 750.943 850.542 753.09C852.922 755.19 855.792 756.24 859.152 756.24C861.905 756.24 864.192 755.61 866.012 754.35C867.879 753.043 869.185 751.317 869.932 749.17H876.792C875.765 752.857 873.712 755.867 870.632 758.2C867.552 760.487 863.725 761.63 859.152 761.63C855.512 761.63 852.245 760.813 849.352 759.18C846.505 757.547 844.265 755.237 842.632 752.25C840.999 749.217 840.182 745.717 840.182 741.75C840.182 737.783 840.975 734.307 842.562 731.32C844.149 728.333 846.365 726.047 849.212 724.46C852.105 722.827 855.419 722.01 859.152 722.01C862.792 722.01 866.012 722.803 868.812 724.39C871.612 725.977 873.759 728.17 875.252 730.97C876.792 733.723 877.562 736.85 877.562 740.35ZM870.982 739.02C870.982 736.593 870.445 734.517 869.372 732.79C868.299 731.017 866.829 729.687 864.962 728.8C863.142 727.867 861.112 727.4 858.872 727.4C855.652 727.4 852.899 728.427 850.612 730.48C848.372 732.533 847.089 735.38 846.762 739.02H870.982ZM902.252 741.68C902.252 737.76 903.046 734.33 904.632 731.39C906.219 728.403 908.389 726.093 911.142 724.46C913.942 722.827 917.046 722.01 920.452 722.01C923.812 722.01 926.729 722.733 929.202 724.18C931.676 725.627 933.519 727.447 934.732 729.64V722.64H941.172V761H934.732V753.86C933.472 756.1 931.582 757.967 929.062 759.46C926.589 760.907 923.696 761.63 920.382 761.63C916.976 761.63 913.896 760.79 911.142 759.11C908.389 757.43 906.219 755.073 904.632 752.04C903.046 749.007 902.252 745.553 902.252 741.68ZM934.732 741.75C934.732 738.857 934.149 736.337 932.982 734.19C931.816 732.043 930.229 730.41 928.222 729.29C926.262 728.123 924.092 727.54 921.712 727.54C919.332 727.54 917.162 728.1 915.202 729.22C913.242 730.34 911.679 731.973 910.512 734.12C909.346 736.267 908.762 738.787 908.762 741.68C908.762 744.62 909.346 747.187 910.512 749.38C911.679 751.527 913.242 753.183 915.202 754.35C917.162 755.47 919.332 756.03 921.712 756.03C924.092 756.03 926.262 755.47 928.222 754.35C930.229 753.183 931.816 751.527 932.982 749.38C934.149 747.187 934.732 744.643 934.732 741.75ZM970.627 721.94C975.294 721.94 979.074 723.363 981.967 726.21C984.86 729.01 986.307 733.07 986.307 738.39V761H980.007V739.3C980.007 735.473 979.05 732.557 977.137 730.55C975.224 728.497 972.61 727.47 969.297 727.47C965.937 727.47 963.254 728.52 961.247 730.62C959.287 732.72 958.307 735.777 958.307 739.79V761H951.937V722.64H958.307V728.1C959.567 726.14 961.27 724.623 963.417 723.55C965.61 722.477 968.014 721.94 970.627 721.94ZM994.332 741.68C994.332 737.76 995.126 734.33 996.712 731.39C998.299 728.403 1000.47 726.093 1003.22 724.46C1006.02 722.827 1009.15 722.01 1012.6 722.01C1015.59 722.01 1018.37 722.71 1020.93 724.11C1023.5 725.463 1025.46 727.26 1026.81 729.5V709.2H1033.25V761H1026.81V753.79C1025.55 756.077 1023.69 757.967 1021.21 759.46C1018.74 760.907 1015.85 761.63 1012.53 761.63C1009.13 761.63 1006.02 760.79 1003.22 759.11C1000.47 757.43 998.299 755.073 996.712 752.04C995.126 749.007 994.332 745.553 994.332 741.68ZM1026.81 741.75C1026.81 738.857 1026.23 736.337 1025.06 734.19C1023.9 732.043 1022.31 730.41 1020.3 729.29C1018.34 728.123 1016.17 727.54 1013.79 727.54C1011.41 727.54 1009.24 728.1 1007.28 729.22C1005.32 730.34 1003.76 731.973 1002.59 734.12C1001.43 736.267 1000.84 738.787 1000.84 741.68C1000.84 744.62 1001.43 747.187 1002.59 749.38C1003.76 751.527 1005.32 753.183 1007.28 754.35C1009.24 755.47 1011.41 756.03 1013.79 756.03C1016.17 756.03 1018.34 755.47 1020.3 754.35C1022.31 753.183 1023.9 751.527 1025.06 749.38C1026.23 747.187 1026.81 744.643 1026.81 741.75ZM1096.7 722.64V761H1090.33V755.33C1089.12 757.29 1087.41 758.83 1085.22 759.95C1083.07 761.023 1080.69 761.56 1078.08 761.56C1075.09 761.56 1072.41 760.953 1070.03 759.74C1067.65 758.48 1065.76 756.613 1064.36 754.14C1063.01 751.667 1062.33 748.657 1062.33 745.11V722.64H1068.63V744.27C1068.63 748.05 1069.59 750.967 1071.5 753.02C1073.41 755.027 1076.03 756.03 1079.34 756.03C1082.75 756.03 1085.43 754.98 1087.39 752.88C1089.35 750.78 1090.33 747.723 1090.33 743.71V722.64H1096.7ZM1121.03 761.63C1118.09 761.63 1115.46 761.14 1113.12 760.16C1110.79 759.133 1108.95 757.733 1107.59 755.96C1106.24 754.14 1105.49 752.063 1105.35 749.73H1111.93C1112.12 751.643 1113.01 753.207 1114.59 754.42C1116.23 755.633 1118.35 756.24 1120.96 756.24C1123.39 756.24 1125.3 755.703 1126.7 754.63C1128.1 753.557 1128.8 752.203 1128.8 750.57C1128.8 748.89 1128.06 747.653 1126.56 746.86C1125.07 746.02 1122.76 745.203 1119.63 744.41C1116.79 743.663 1114.45 742.917 1112.63 742.17C1110.86 741.377 1109.32 740.233 1108.01 738.74C1106.75 737.2 1106.12 735.193 1106.12 732.72C1106.12 730.76 1106.71 728.963 1107.87 727.33C1109.04 725.697 1110.7 724.413 1112.84 723.48C1114.99 722.5 1117.44 722.01 1120.19 722.01C1124.44 722.01 1127.87 723.083 1130.48 725.23C1133.1 727.377 1134.5 730.317 1134.68 734.05H1128.31C1128.17 732.043 1127.36 730.433 1125.86 729.22C1124.42 728.007 1122.46 727.4 1119.98 727.4C1117.7 727.4 1115.88 727.89 1114.52 728.87C1113.17 729.85 1112.49 731.133 1112.49 732.72C1112.49 733.98 1112.89 735.03 1113.68 735.87C1114.52 736.663 1115.55 737.317 1116.76 737.83C1118.02 738.297 1119.75 738.833 1121.94 739.44C1124.7 740.187 1126.94 740.933 1128.66 741.68C1130.39 742.38 1131.86 743.453 1133.07 744.9C1134.33 746.347 1134.99 748.237 1135.03 750.57C1135.03 752.67 1134.45 754.56 1133.28 756.24C1132.12 757.92 1130.46 759.25 1128.31 760.23C1126.21 761.163 1123.79 761.63 1121.03 761.63ZM1179.03 740.35C1179.03 741.563 1178.96 742.847 1178.82 744.2H1148.16C1148.39 747.98 1149.67 750.943 1152.01 753.09C1154.39 755.19 1157.26 756.24 1160.62 756.24C1163.37 756.24 1165.66 755.61 1167.48 754.35C1169.34 753.043 1170.65 751.317 1171.4 749.17H1178.26C1177.23 752.857 1175.18 755.867 1172.1 758.2C1169.02 760.487 1165.19 761.63 1160.62 761.63C1156.98 761.63 1153.71 760.813 1150.82 759.18C1147.97 757.547 1145.73 755.237 1144.1 752.25C1142.46 749.217 1141.65 745.717 1141.65 741.75C1141.65 737.783 1142.44 734.307 1144.03 731.32C1145.61 728.333 1147.83 726.047 1150.68 724.46C1153.57 722.827 1156.88 722.01 1160.62 722.01C1164.26 722.01 1167.48 722.803 1170.28 724.39C1173.08 725.977 1175.22 728.17 1176.72 730.97C1178.26 733.723 1179.03 736.85 1179.03 740.35ZM1172.45 739.02C1172.45 736.593 1171.91 734.517 1170.84 732.79C1169.76 731.017 1168.29 729.687 1166.43 728.8C1164.61 727.867 1162.58 727.4 1160.34 727.4C1157.12 727.4 1154.36 728.427 1152.08 730.48C1149.84 732.533 1148.55 735.38 1148.23 739.02H1172.45ZM1203.04 727.89H1194.99V761H1188.62V727.89H1183.65V722.64H1188.62V719.91C1188.62 715.617 1189.72 712.49 1191.91 710.53C1194.15 708.523 1197.72 707.52 1202.62 707.52V712.84C1199.82 712.84 1197.84 713.4 1196.67 714.52C1195.55 715.593 1194.99 717.39 1194.99 719.91V722.64H1203.04V727.89ZM1244.49 722.64V761H1238.12V755.33C1236.91 757.29 1235.21 758.83 1233.01 759.95C1230.87 761.023 1228.49 761.56 1225.87 761.56C1222.89 761.56 1220.2 760.953 1217.82 759.74C1215.44 758.48 1213.55 756.613 1212.15 754.14C1210.8 751.667 1210.12 748.657 1210.12 745.11V722.64H1216.42V744.27C1216.42 748.05 1217.38 750.967 1219.29 753.02C1221.21 755.027 1223.82 756.03 1227.13 756.03C1230.54 756.03 1233.22 754.98 1235.18 752.88C1237.14 750.78 1238.12 747.723 1238.12 743.71V722.64H1244.49ZM1261.62 709.2V761H1255.25V709.2H1261.62ZM257.76 834.71C259.02 832.517 260.887 830.697 263.36 829.25C265.88 827.757 268.797 827.01 272.11 827.01C275.517 827.01 278.597 827.827 281.35 829.46C284.15 831.093 286.343 833.403 287.93 836.39C289.517 839.33 290.31 842.76 290.31 846.68C290.31 850.553 289.517 854.007 287.93 857.04C286.343 860.073 284.15 862.43 281.35 864.11C278.597 865.79 275.517 866.63 272.11 866.63C268.843 866.63 265.95 865.907 263.43 864.46C260.957 862.967 259.067 861.123 257.76 858.93V884.2H251.39V827.64H257.76V834.71ZM283.8 846.68C283.8 843.787 283.217 841.267 282.05 839.12C280.883 836.973 279.297 835.34 277.29 834.22C275.33 833.1 273.16 832.54 270.78 832.54C268.447 832.54 266.277 833.123 264.27 834.29C262.31 835.41 260.723 837.067 259.51 839.26C258.343 841.407 257.76 843.903 257.76 846.75C257.76 849.643 258.343 852.187 259.51 854.38C260.723 856.527 262.31 858.183 264.27 859.35C266.277 860.47 268.447 861.03 270.78 861.03C273.16 861.03 275.33 860.47 277.29 859.35C279.297 858.183 280.883 856.527 282.05 854.38C283.217 852.187 283.8 849.62 283.8 846.68ZM305.065 814.2V866H298.695V814.2H305.065ZM313.541 846.68C313.541 842.76 314.335 839.33 315.921 836.39C317.508 833.403 319.678 831.093 322.431 829.46C325.231 827.827 328.335 827.01 331.741 827.01C335.101 827.01 338.018 827.733 340.491 829.18C342.965 830.627 344.808 832.447 346.021 834.64V827.64H352.461V866H346.021V858.86C344.761 861.1 342.871 862.967 340.351 864.46C337.878 865.907 334.985 866.63 331.671 866.63C328.265 866.63 325.185 865.79 322.431 864.11C319.678 862.43 317.508 860.073 315.921 857.04C314.335 854.007 313.541 850.553 313.541 846.68ZM346.021 846.75C346.021 843.857 345.438 841.337 344.271 839.19C343.105 837.043 341.518 835.41 339.511 834.29C337.551 833.123 335.381 832.54 333.001 832.54C330.621 832.54 328.451 833.1 326.491 834.22C324.531 835.34 322.968 836.973 321.801 839.12C320.635 841.267 320.051 843.787 320.051 846.68C320.051 849.62 320.635 852.187 321.801 854.38C322.968 856.527 324.531 858.183 326.491 859.35C328.451 860.47 330.621 861.03 333.001 861.03C335.381 861.03 337.551 860.47 339.511 859.35C341.518 858.183 343.105 856.527 344.271 854.38C345.438 852.187 346.021 849.643 346.021 846.75ZM370.996 832.89V855.5C370.996 857.367 371.393 858.697 372.186 859.49C372.979 860.237 374.356 860.61 376.316 860.61H381.006V866H375.266C371.719 866 369.059 865.183 367.286 863.55C365.513 861.917 364.626 859.233 364.626 855.5V832.89H359.656V827.64H364.626V817.98H370.996V827.64H381.006V832.89H370.996ZM404.334 832.89H396.284V866H389.914V832.89H384.944V827.64H389.914V824.91C389.914 820.617 391.011 817.49 393.204 815.53C395.444 813.523 399.014 812.52 403.914 812.52V817.84C401.114 817.84 399.131 818.4 397.964 819.52C396.844 820.593 396.284 822.39 396.284 824.91V827.64H404.334V832.89ZM428.491 866.63C424.898 866.63 421.631 865.813 418.691 864.18C415.798 862.547 413.511 860.237 411.831 857.25C410.198 854.217 409.381 850.717 409.381 846.75C409.381 842.83 410.221 839.377 411.901 836.39C413.628 833.357 415.961 831.047 418.901 829.46C421.841 827.827 425.131 827.01 428.771 827.01C432.411 827.01 435.701 827.827 438.641 829.46C441.581 831.047 443.891 833.333 445.571 836.32C447.298 839.307 448.161 842.783 448.161 846.75C448.161 850.717 447.274 854.217 445.501 857.25C443.774 860.237 441.418 862.547 438.431 864.18C435.444 865.813 432.131 866.63 428.491 866.63ZM428.491 861.03C430.778 861.03 432.924 860.493 434.931 859.42C436.938 858.347 438.548 856.737 439.761 854.59C441.021 852.443 441.651 849.83 441.651 846.75C441.651 843.67 441.044 841.057 439.831 838.91C438.618 836.763 437.031 835.177 435.071 834.15C433.111 833.077 430.988 832.54 428.701 832.54C426.368 832.54 424.221 833.077 422.261 834.15C420.348 835.177 418.808 836.763 417.641 838.91C416.474 841.057 415.891 843.67 415.891 846.75C415.891 849.877 416.451 852.513 417.571 854.66C418.738 856.807 420.278 858.417 422.191 859.49C424.104 860.517 426.204 861.03 428.491 861.03ZM462.906 833.87C464.026 831.677 465.613 829.973 467.666 828.76C469.766 827.547 472.31 826.94 475.296 826.94V833.52H473.616C466.476 833.52 462.906 837.393 462.906 845.14V866H456.536V827.64H462.906V833.87ZM528.78 826.94C531.766 826.94 534.426 827.57 536.76 828.83C539.093 830.043 540.936 831.887 542.29 834.36C543.643 836.833 544.32 839.843 544.32 843.39V866H538.02V844.3C538.02 840.473 537.063 837.557 535.15 835.55C533.283 833.497 530.74 832.47 527.52 832.47C524.206 832.47 521.57 833.543 519.61 835.69C517.65 837.79 516.67 840.847 516.67 844.86V866H510.37V844.3C510.37 840.473 509.413 837.557 507.5 835.55C505.633 833.497 503.09 832.47 499.87 832.47C496.556 832.47 493.92 833.543 491.96 835.69C490 837.79 489.02 840.847 489.02 844.86V866H482.65V827.64H489.02V833.17C490.28 831.163 491.96 829.623 494.06 828.55C496.206 827.477 498.563 826.94 501.13 826.94C504.35 826.94 507.196 827.663 509.67 829.11C512.143 830.557 513.986 832.68 515.2 835.48C516.273 832.773 518.046 830.673 520.52 829.18C522.993 827.687 525.746 826.94 528.78 826.94ZM589.041 832.89H580.991V866H574.621V832.89H569.651V827.64H574.621V824.91C574.621 820.617 575.718 817.49 577.911 815.53C580.151 813.523 583.721 812.52 588.621 812.52V817.84C585.821 817.84 583.838 818.4 582.671 819.52C581.551 820.593 580.991 822.39 580.991 824.91V827.64H589.041V832.89ZM613.198 866.63C609.605 866.63 606.338 865.813 603.398 864.18C600.505 862.547 598.218 860.237 596.538 857.25C594.905 854.217 594.088 850.717 594.088 846.75C594.088 842.83 594.928 839.377 596.608 836.39C598.335 833.357 600.668 831.047 603.608 829.46C606.548 827.827 609.838 827.01 613.478 827.01C617.118 827.01 620.408 827.827 623.348 829.46C626.288 831.047 628.598 833.333 630.278 836.32C632.005 839.307 632.868 842.783 632.868 846.75C632.868 850.717 631.981 854.217 630.208 857.25C628.481 860.237 626.125 862.547 623.138 864.18C620.151 865.813 616.838 866.63 613.198 866.63ZM613.198 861.03C615.485 861.03 617.631 860.493 619.638 859.42C621.645 858.347 623.255 856.737 624.468 854.59C625.728 852.443 626.358 849.83 626.358 846.75C626.358 843.67 625.751 841.057 624.538 838.91C623.325 836.763 621.738 835.177 619.778 834.15C617.818 833.077 615.695 832.54 613.408 832.54C611.075 832.54 608.928 833.077 606.968 834.15C605.055 835.177 603.515 836.763 602.348 838.91C601.181 841.057 600.598 843.67 600.598 846.75C600.598 849.877 601.158 852.513 602.278 854.66C603.445 856.807 604.985 858.417 606.898 859.49C608.811 860.517 610.911 861.03 613.198 861.03ZM647.614 833.87C648.734 831.677 650.32 829.973 652.374 828.76C654.474 827.547 657.017 826.94 660.004 826.94V833.52H658.324C651.184 833.52 647.614 837.393 647.614 845.14V866H641.244V827.64H647.614V833.87ZM732.149 826.94C735.136 826.94 737.796 827.57 740.129 828.83C742.462 830.043 744.306 831.887 745.659 834.36C747.012 836.833 747.689 839.843 747.689 843.39V866H741.389V844.3C741.389 840.473 740.432 837.557 738.519 835.55C736.652 833.497 734.109 832.47 730.889 832.47C727.576 832.47 724.939 833.543 722.979 835.69C721.019 837.79 720.039 840.847 720.039 844.86V866H713.739V844.3C713.739 840.473 712.782 837.557 710.869 835.55C709.002 833.497 706.459 832.47 703.239 832.47C699.926 832.47 697.289 833.543 695.329 835.69C693.369 837.79 692.389 840.847 692.389 844.86V866H686.019V827.64H692.389V833.17C693.649 831.163 695.329 829.623 697.429 828.55C699.576 827.477 701.932 826.94 704.499 826.94C707.719 826.94 710.566 827.663 713.039 829.11C715.512 830.557 717.356 832.68 718.569 835.48C719.642 832.773 721.416 830.673 723.889 829.18C726.362 827.687 729.116 826.94 732.149 826.94ZM755.758 846.68C755.758 842.76 756.551 839.33 758.138 836.39C759.725 833.403 761.895 831.093 764.648 829.46C767.448 827.827 770.551 827.01 773.958 827.01C777.318 827.01 780.235 827.733 782.708 829.18C785.181 830.627 787.025 832.447 788.238 834.64V827.64H794.678V866H788.238V858.86C786.978 861.1 785.088 862.967 782.568 864.46C780.095 865.907 777.201 866.63 773.888 866.63C770.481 866.63 767.401 865.79 764.648 864.11C761.895 862.43 759.725 860.073 758.138 857.04C756.551 854.007 755.758 850.553 755.758 846.68ZM788.238 846.75C788.238 843.857 787.655 841.337 786.488 839.19C785.321 837.043 783.735 835.41 781.728 834.29C779.768 833.123 777.598 832.54 775.218 832.54C772.838 832.54 770.668 833.1 768.708 834.22C766.748 835.34 765.185 836.973 764.018 839.12C762.851 841.267 762.268 843.787 762.268 846.68C762.268 849.62 762.851 852.187 764.018 854.38C765.185 856.527 766.748 858.183 768.708 859.35C770.668 860.47 772.838 861.03 775.218 861.03C777.598 861.03 779.768 860.47 781.728 859.35C783.735 858.183 785.321 856.527 786.488 854.38C787.655 852.187 788.238 849.643 788.238 846.75ZM824.133 826.94C828.799 826.94 832.579 828.363 835.473 831.21C838.366 834.01 839.813 838.07 839.813 843.39V866H833.513V844.3C833.513 840.473 832.556 837.557 830.643 835.55C828.729 833.497 826.116 832.47 822.803 832.47C819.443 832.47 816.759 833.52 814.753 835.62C812.793 837.72 811.813 840.777 811.813 844.79V866H805.443V827.64H811.813V833.1C813.073 831.14 814.776 829.623 816.923 828.55C819.116 827.477 821.519 826.94 824.133 826.94ZM847.838 846.68C847.838 842.76 848.631 839.33 850.218 836.39C851.805 833.403 853.975 831.093 856.728 829.46C859.528 827.827 862.631 827.01 866.038 827.01C869.398 827.01 872.315 827.733 874.788 829.18C877.261 830.627 879.105 832.447 880.318 834.64V827.64H886.758V866H880.318V858.86C879.058 861.1 877.168 862.967 874.648 864.46C872.175 865.907 869.281 866.63 865.968 866.63C862.561 866.63 859.481 865.79 856.728 864.11C853.975 862.43 851.805 860.073 850.218 857.04C848.631 854.007 847.838 850.553 847.838 846.68ZM880.318 846.75C880.318 843.857 879.735 841.337 878.568 839.19C877.401 837.043 875.815 835.41 873.808 834.29C871.848 833.123 869.678 832.54 867.298 832.54C864.918 832.54 862.748 833.1 860.788 834.22C858.828 835.34 857.265 836.973 856.098 839.12C854.931 841.267 854.348 843.787 854.348 846.68C854.348 849.62 854.931 852.187 856.098 854.38C857.265 856.527 858.828 858.183 860.788 859.35C862.748 860.47 864.918 861.03 867.298 861.03C869.678 861.03 871.848 860.47 873.808 859.35C875.815 858.183 877.401 856.527 878.568 854.38C879.735 852.187 880.318 849.643 880.318 846.75ZM913.343 827.01C916.656 827.01 919.549 827.733 922.023 829.18C924.543 830.627 926.409 832.447 927.623 834.64V827.64H934.063V866.84C934.063 870.34 933.316 873.443 931.823 876.15C930.329 878.903 928.183 881.05 925.383 882.59C922.629 884.13 919.409 884.9 915.723 884.9C910.683 884.9 906.483 883.71 903.123 881.33C899.763 878.95 897.779 875.707 897.173 871.6H903.473C904.173 873.933 905.619 875.8 907.813 877.2C910.006 878.647 912.643 879.37 915.723 879.37C919.223 879.37 922.069 878.273 924.263 876.08C926.503 873.887 927.623 870.807 927.623 866.84V858.79C926.363 861.03 924.496 862.897 922.023 864.39C919.549 865.883 916.656 866.63 913.343 866.63C909.936 866.63 906.833 865.79 904.033 864.11C901.279 862.43 899.109 860.073 897.523 857.04C895.936 854.007 895.143 850.553 895.143 846.68C895.143 842.76 895.936 839.33 897.523 836.39C899.109 833.403 901.279 831.093 904.033 829.46C906.833 827.827 909.936 827.01 913.343 827.01ZM927.623 846.75C927.623 843.857 927.039 841.337 925.873 839.19C924.706 837.043 923.119 835.41 921.113 834.29C919.153 833.123 916.983 832.54 914.603 832.54C912.223 832.54 910.053 833.1 908.093 834.22C906.133 835.34 904.569 836.973 903.403 839.12C902.236 841.267 901.653 843.787 901.653 846.68C901.653 849.62 902.236 852.187 903.403 854.38C904.569 856.527 906.133 858.183 908.093 859.35C910.053 860.47 912.223 861.03 914.603 861.03C916.983 861.03 919.153 860.47 921.113 859.35C923.119 858.183 924.706 856.527 925.873 854.38C927.039 852.187 927.623 849.643 927.623 846.75ZM948.118 821.41C946.904 821.41 945.878 820.99 945.038 820.15C944.198 819.31 943.778 818.283 943.778 817.07C943.778 815.857 944.198 814.83 945.038 813.99C945.878 813.15 946.904 812.73 948.118 812.73C949.284 812.73 950.264 813.15 951.058 813.99C951.898 814.83 952.318 815.857 952.318 817.07C952.318 818.283 951.898 819.31 951.058 820.15C950.264 820.99 949.284 821.41 948.118 821.41ZM951.198 827.64V866H944.828V827.64H951.198ZM980.744 826.94C985.411 826.94 989.191 828.363 992.084 831.21C994.977 834.01 996.424 838.07 996.424 843.39V866H990.124V844.3C990.124 840.473 989.167 837.557 987.254 835.55C985.341 833.497 982.727 832.47 979.414 832.47C976.054 832.47 973.371 833.52 971.364 835.62C969.404 837.72 968.424 840.777 968.424 844.79V866H962.054V827.64H968.424V833.1C969.684 831.14 971.387 829.623 973.534 828.55C975.727 827.477 978.131 826.94 980.744 826.94ZM1022.65 827.01C1025.96 827.01 1028.86 827.733 1031.33 829.18C1033.85 830.627 1035.72 832.447 1036.93 834.64V827.64H1043.37V866.84C1043.37 870.34 1042.62 873.443 1041.13 876.15C1039.64 878.903 1037.49 881.05 1034.69 882.59C1031.94 884.13 1028.72 884.9 1025.03 884.9C1019.99 884.9 1015.79 883.71 1012.43 881.33C1009.07 878.95 1007.09 875.707 1006.48 871.6H1012.78C1013.48 873.933 1014.93 875.8 1017.12 877.2C1019.31 878.647 1021.95 879.37 1025.03 879.37C1028.53 879.37 1031.38 878.273 1033.57 876.08C1035.81 873.887 1036.93 870.807 1036.93 866.84V858.79C1035.67 861.03 1033.8 862.897 1031.33 864.39C1028.86 865.883 1025.96 866.63 1022.65 866.63C1019.24 866.63 1016.14 865.79 1013.34 864.11C1010.59 862.43 1008.42 860.073 1006.83 857.04C1005.24 854.007 1004.45 850.553 1004.45 846.68C1004.45 842.76 1005.24 839.33 1006.83 836.39C1008.42 833.403 1010.59 831.093 1013.34 829.46C1016.14 827.827 1019.24 827.01 1022.65 827.01ZM1036.93 846.75C1036.93 843.857 1036.35 841.337 1035.18 839.19C1034.01 837.043 1032.43 835.41 1030.42 834.29C1028.46 833.123 1026.29 832.54 1023.91 832.54C1021.53 832.54 1019.36 833.1 1017.4 834.22C1015.44 835.34 1013.88 836.973 1012.71 839.12C1011.54 841.267 1010.96 843.787 1010.96 846.68C1010.96 849.62 1011.54 852.187 1012.71 854.38C1013.88 856.527 1015.44 858.183 1017.4 859.35C1019.36 860.47 1021.53 861.03 1023.91 861.03C1026.29 861.03 1028.46 860.47 1030.42 859.35C1032.43 858.183 1034.01 856.527 1035.18 854.38C1036.35 852.187 1036.93 849.643 1036.93 846.75ZM1105.84 827.64L1082.74 884.06H1076.16L1083.72 865.58L1068.25 827.64H1075.32L1087.36 858.72L1099.26 827.64H1105.84ZM1128.97 866.63C1125.38 866.63 1122.11 865.813 1119.17 864.18C1116.28 862.547 1113.99 860.237 1112.31 857.25C1110.68 854.217 1109.86 850.717 1109.86 846.75C1109.86 842.83 1110.7 839.377 1112.38 836.39C1114.11 833.357 1116.44 831.047 1119.38 829.46C1122.32 827.827 1125.61 827.01 1129.25 827.01C1132.89 827.01 1136.18 827.827 1139.12 829.46C1142.06 831.047 1144.37 833.333 1146.05 836.32C1147.78 839.307 1148.64 842.783 1148.64 846.75C1148.64 850.717 1147.75 854.217 1145.98 857.25C1144.25 860.237 1141.9 862.547 1138.91 864.18C1135.92 865.813 1132.61 866.63 1128.97 866.63ZM1128.97 861.03C1131.26 861.03 1133.4 860.493 1135.41 859.42C1137.42 858.347 1139.03 856.737 1140.24 854.59C1141.5 852.443 1142.13 849.83 1142.13 846.75C1142.13 843.67 1141.52 841.057 1140.31 838.91C1139.1 836.763 1137.51 835.177 1135.55 834.15C1133.59 833.077 1131.47 832.54 1129.18 832.54C1126.85 832.54 1124.7 833.077 1122.74 834.15C1120.83 835.177 1119.29 836.763 1118.12 838.91C1116.95 841.057 1116.37 843.67 1116.37 846.75C1116.37 849.877 1116.93 852.513 1118.05 854.66C1119.22 856.807 1120.76 858.417 1122.67 859.49C1124.58 860.517 1126.68 861.03 1128.97 861.03ZM1191.04 827.64V866H1184.67V860.33C1183.45 862.29 1181.75 863.83 1179.56 864.95C1177.41 866.023 1175.03 866.56 1172.42 866.56C1169.43 866.56 1166.75 865.953 1164.37 864.74C1161.99 863.48 1160.1 861.613 1158.7 859.14C1157.34 856.667 1156.67 853.657 1156.67 850.11V827.64H1162.97V849.27C1162.97 853.05 1163.92 855.967 1165.84 858.02C1167.75 860.027 1170.36 861.03 1173.68 861.03C1177.08 861.03 1179.77 859.98 1181.73 857.88C1183.69 855.78 1184.67 852.723 1184.67 848.71V827.64H1191.04ZM1208.16 833.87C1209.28 831.677 1210.87 829.973 1212.92 828.76C1215.02 827.547 1217.56 826.94 1220.55 826.94V833.52H1218.87C1211.73 833.52 1208.16 837.393 1208.16 845.14V866H1201.79V827.64H1208.16V833.87ZM257.76 939.71C259.02 937.517 260.887 935.697 263.36 934.25C265.88 932.757 268.797 932.01 272.11 932.01C275.517 932.01 278.597 932.827 281.35 934.46C284.15 936.093 286.343 938.403 287.93 941.39C289.517 944.33 290.31 947.76 290.31 951.68C290.31 955.553 289.517 959.007 287.93 962.04C286.343 965.073 284.15 967.43 281.35 969.11C278.597 970.79 275.517 971.63 272.11 971.63C268.843 971.63 265.95 970.907 263.43 969.46C260.957 967.967 259.067 966.123 257.76 963.93V989.2H251.39V932.64H257.76V939.71ZM283.8 951.68C283.8 948.787 283.217 946.267 282.05 944.12C280.883 941.973 279.297 940.34 277.29 939.22C275.33 938.1 273.16 937.54 270.78 937.54C268.447 937.54 266.277 938.123 264.27 939.29C262.31 940.41 260.723 942.067 259.51 944.26C258.343 946.407 257.76 948.903 257.76 951.75C257.76 954.643 258.343 957.187 259.51 959.38C260.723 961.527 262.31 963.183 264.27 964.35C266.277 965.47 268.447 966.03 270.78 966.03C273.16 966.03 275.33 965.47 277.29 964.35C279.297 963.183 280.883 961.527 282.05 959.38C283.217 957.187 283.8 954.62 283.8 951.68ZM305.065 938.87C306.185 936.677 307.771 934.973 309.825 933.76C311.925 932.547 314.468 931.94 317.455 931.94V938.52H315.775C308.635 938.52 305.065 942.393 305.065 950.14V971H298.695V932.64H305.065V938.87ZM341.538 971.63C337.945 971.63 334.678 970.813 331.738 969.18C328.845 967.547 326.558 965.237 324.878 962.25C323.245 959.217 322.428 955.717 322.428 951.75C322.428 947.83 323.268 944.377 324.948 941.39C326.675 938.357 329.008 936.047 331.948 934.46C334.888 932.827 338.178 932.01 341.818 932.01C345.458 932.01 348.748 932.827 351.688 934.46C354.628 936.047 356.938 938.333 358.618 941.32C360.345 944.307 361.208 947.783 361.208 951.75C361.208 955.717 360.321 959.217 358.548 962.25C356.821 965.237 354.465 967.547 351.478 969.18C348.491 970.813 345.178 971.63 341.538 971.63ZM341.538 966.03C343.825 966.03 345.971 965.493 347.978 964.42C349.985 963.347 351.595 961.737 352.808 959.59C354.068 957.443 354.698 954.83 354.698 951.75C354.698 948.67 354.091 946.057 352.878 943.91C351.665 941.763 350.078 940.177 348.118 939.15C346.158 938.077 344.035 937.54 341.748 937.54C339.415 937.54 337.268 938.077 335.308 939.15C333.395 940.177 331.855 941.763 330.688 943.91C329.521 946.057 328.938 948.67 328.938 951.75C328.938 954.877 329.498 957.513 330.618 959.66C331.785 961.807 333.325 963.417 335.238 964.49C337.151 965.517 339.251 966.03 341.538 966.03ZM373.013 926.41C371.8 926.41 370.773 925.99 369.933 925.15C369.14 924.31 368.743 923.283 368.743 922.07C368.743 920.857 369.14 919.83 369.933 918.99C370.773 918.15 371.8 917.73 373.013 917.73C374.227 917.73 375.23 918.15 376.023 918.99C376.863 919.83 377.283 920.857 377.283 922.07C377.283 923.283 376.863 924.31 376.023 925.15C375.23 925.99 374.227 926.41 373.013 926.41ZM376.163 979.33C376.163 982.737 375.3 985.233 373.573 986.82C371.847 988.407 369.327 989.2 366.013 989.2H362.303V983.81H364.963C366.737 983.81 367.973 983.46 368.673 982.76C369.42 982.06 369.793 980.87 369.793 979.19V932.64H376.163V979.33ZM421.947 950.35C421.947 951.563 421.877 952.847 421.737 954.2H391.077C391.31 957.98 392.593 960.943 394.927 963.09C397.307 965.19 400.177 966.24 403.537 966.24C406.29 966.24 408.577 965.61 410.397 964.35C412.263 963.043 413.57 961.317 414.317 959.17H421.177C420.15 962.857 418.097 965.867 415.017 968.2C411.937 970.487 408.11 971.63 403.537 971.63C399.897 971.63 396.63 970.813 393.737 969.18C390.89 967.547 388.65 965.237 387.017 962.25C385.383 959.217 384.567 955.717 384.567 951.75C384.567 947.783 385.36 944.307 386.947 941.32C388.533 938.333 390.75 936.047 393.597 934.46C396.49 932.827 399.803 932.01 403.537 932.01C407.177 932.01 410.397 932.803 413.197 934.39C415.997 935.977 418.143 938.17 419.637 940.97C421.177 943.723 421.947 946.85 421.947 950.35ZM415.367 949.02C415.367 946.593 414.83 944.517 413.757 942.79C412.683 941.017 411.213 939.687 409.347 938.8C407.527 937.867 405.497 937.4 403.257 937.4C400.037 937.4 397.283 938.427 394.997 940.48C392.757 942.533 391.473 945.38 391.147 949.02H415.367ZM427.975 951.75C427.975 947.783 428.768 944.33 430.355 941.39C431.942 938.403 434.135 936.093 436.935 934.46C439.782 932.827 443.025 932.01 446.665 932.01C451.378 932.01 455.252 933.153 458.285 935.44C461.365 937.727 463.395 940.9 464.375 944.96H457.515C456.862 942.627 455.578 940.783 453.665 939.43C451.798 938.077 449.465 937.4 446.665 937.4C443.025 937.4 440.085 938.66 437.845 941.18C435.605 943.653 434.485 947.177 434.485 951.75C434.485 956.37 435.605 959.94 437.845 962.46C440.085 964.98 443.025 966.24 446.665 966.24C449.465 966.24 451.798 965.587 453.665 964.28C455.532 962.973 456.815 961.107 457.515 958.68H464.375C463.348 962.6 461.295 965.75 458.215 968.13C455.135 970.463 451.285 971.63 446.665 971.63C443.025 971.63 439.782 970.813 436.935 969.18C434.135 967.547 431.942 965.237 430.355 962.25C428.768 959.263 427.975 955.763 427.975 951.75ZM480.644 937.89V960.5C480.644 962.367 481.041 963.697 481.834 964.49C482.628 965.237 484.004 965.61 485.964 965.61H490.654V971H484.914C481.368 971 478.708 970.183 476.934 968.55C475.161 966.917 474.274 964.233 474.274 960.5V937.89H469.304V932.64H474.274V922.98H480.644V932.64H490.654V937.89H480.644ZM511.952 971.63C509.012 971.63 506.376 971.14 504.042 970.16C501.709 969.133 499.866 967.733 498.512 965.96C497.159 964.14 496.412 962.063 496.272 959.73H502.852C503.039 961.643 503.926 963.207 505.512 964.42C507.146 965.633 509.269 966.24 511.882 966.24C514.309 966.24 516.222 965.703 517.622 964.63C519.022 963.557 519.722 962.203 519.722 960.57C519.722 958.89 518.976 957.653 517.482 956.86C515.989 956.02 513.679 955.203 510.552 954.41C507.706 953.663 505.372 952.917 503.552 952.17C501.779 951.377 500.239 950.233 498.932 948.74C497.672 947.2 497.042 945.193 497.042 942.72C497.042 940.76 497.626 938.963 498.792 937.33C499.959 935.697 501.616 934.413 503.762 933.48C505.909 932.5 508.359 932.01 511.112 932.01C515.359 932.01 518.789 933.083 521.402 935.23C524.016 937.377 525.416 940.317 525.602 944.05H519.232C519.092 942.043 518.276 940.433 516.782 939.22C515.336 938.007 513.376 937.4 510.902 937.4C508.616 937.4 506.796 937.89 505.442 938.87C504.089 939.85 503.412 941.133 503.412 942.72C503.412 943.98 503.809 945.03 504.602 945.87C505.442 946.663 506.469 947.317 507.682 947.83C508.942 948.297 510.669 948.833 512.862 949.44C515.616 950.187 517.856 950.933 519.582 951.68C521.309 952.38 522.779 953.453 523.992 954.9C525.252 956.347 525.906 958.237 525.952 960.57C525.952 962.67 525.369 964.56 524.202 966.24C523.036 967.92 521.379 969.25 519.232 970.23C517.132 971.163 514.706 971.63 511.952 971.63ZM536.975 971.42C535.761 971.42 534.735 971 533.895 970.16C533.055 969.32 532.635 968.293 532.635 967.08C532.635 965.867 533.055 964.84 533.895 964C534.735 963.16 535.761 962.74 536.975 962.74C538.141 962.74 539.121 963.16 539.915 964C540.755 964.84 541.175 965.867 541.175 967.08C541.175 968.293 540.755 969.32 539.915 970.16C539.121 971 538.141 971.42 536.975 971.42ZM266.86 1076.49C263.64 1076.49 260.747 1075.93 258.18 1074.81C255.66 1073.64 253.677 1072.06 252.23 1070.05C250.783 1068 250.037 1065.64 249.99 1062.98H256.78C257.013 1065.27 257.947 1067.2 259.58 1068.79C261.26 1070.33 263.687 1071.1 266.86 1071.1C269.893 1071.1 272.273 1070.35 274 1068.86C275.773 1067.32 276.66 1065.36 276.66 1062.98C276.66 1061.11 276.147 1059.6 275.12 1058.43C274.093 1057.26 272.81 1056.38 271.27 1055.77C269.73 1055.16 267.653 1054.51 265.04 1053.81C261.82 1052.97 259.23 1052.13 257.27 1051.29C255.357 1050.45 253.7 1049.14 252.3 1047.37C250.947 1045.55 250.27 1043.12 250.27 1040.09C250.27 1037.43 250.947 1035.07 252.3 1033.02C253.653 1030.97 255.543 1029.38 257.97 1028.26C260.443 1027.14 263.267 1026.58 266.44 1026.58C271.013 1026.58 274.747 1027.72 277.64 1030.01C280.58 1032.3 282.237 1035.33 282.61 1039.11H275.61C275.377 1037.24 274.397 1035.61 272.67 1034.21C270.943 1032.76 268.657 1032.04 265.81 1032.04C263.15 1032.04 260.98 1032.74 259.3 1034.14C257.62 1035.49 256.78 1037.41 256.78 1039.88C256.78 1041.65 257.27 1043.1 258.25 1044.22C259.277 1045.34 260.513 1046.2 261.96 1046.81C263.453 1047.37 265.53 1048.02 268.19 1048.77C271.41 1049.66 274 1050.54 275.96 1051.43C277.92 1052.27 279.6 1053.6 281 1055.42C282.4 1057.19 283.1 1059.62 283.1 1062.7C283.1 1065.08 282.47 1067.32 281.21 1069.42C279.95 1071.52 278.083 1073.22 275.61 1074.53C273.137 1075.84 270.22 1076.49 266.86 1076.49ZM300.244 1042.89V1065.5C300.244 1067.37 300.641 1068.7 301.434 1069.49C302.227 1070.24 303.604 1070.61 305.564 1070.61H310.254V1076H304.514C300.967 1076 298.307 1075.18 296.534 1073.55C294.761 1071.92 293.874 1069.23 293.874 1065.5V1042.89H288.904V1037.64H293.874V1027.98H300.244V1037.64H310.254V1042.89H300.244ZM315.592 1056.68C315.592 1052.76 316.385 1049.33 317.972 1046.39C319.559 1043.4 321.729 1041.09 324.482 1039.46C327.282 1037.83 330.385 1037.01 333.792 1037.01C337.152 1037.01 340.069 1037.73 342.542 1039.18C345.015 1040.63 346.859 1042.45 348.072 1044.64V1037.64H354.512V1076H348.072V1068.86C346.812 1071.1 344.922 1072.97 342.402 1074.46C339.929 1075.91 337.035 1076.63 333.722 1076.63C330.315 1076.63 327.235 1075.79 324.482 1074.11C321.729 1072.43 319.559 1070.07 317.972 1067.04C316.385 1064.01 315.592 1060.55 315.592 1056.68ZM348.072 1056.75C348.072 1053.86 347.489 1051.34 346.322 1049.19C345.155 1047.04 343.569 1045.41 341.562 1044.29C339.602 1043.12 337.432 1042.54 335.052 1042.54C332.672 1042.54 330.502 1043.1 328.542 1044.22C326.582 1045.34 325.019 1046.97 323.852 1049.12C322.685 1051.27 322.102 1053.79 322.102 1056.68C322.102 1059.62 322.685 1062.19 323.852 1064.38C325.019 1066.53 326.582 1068.18 328.542 1069.35C330.502 1070.47 332.672 1071.03 335.052 1071.03C337.432 1071.03 339.602 1070.47 341.562 1069.35C343.569 1068.18 345.155 1066.53 346.322 1064.38C347.489 1062.19 348.072 1059.64 348.072 1056.75ZM371.647 1043.87C372.767 1041.68 374.353 1039.97 376.407 1038.76C378.507 1037.55 381.05 1036.94 384.037 1036.94V1043.52H382.357C375.217 1043.52 371.647 1047.39 371.647 1055.14V1076H365.277V1037.64H371.647V1043.87ZM399.16 1042.89V1065.5C399.16 1067.37 399.557 1068.7 400.35 1069.49C401.143 1070.24 402.52 1070.61 404.48 1070.61H409.17V1076H403.43C399.883 1076 397.223 1075.18 395.45 1073.55C393.677 1071.92 392.79 1069.23 392.79 1065.5V1042.89H387.82V1037.64H392.79V1027.98H399.16V1037.64H409.17V1042.89H399.16ZM468.59 1037.64L445.49 1094.06H438.91L446.47 1075.58L431 1037.64H438.07L450.11 1068.72L462.01 1037.64H468.59ZM491.724 1076.63C488.13 1076.63 484.864 1075.81 481.924 1074.18C479.03 1072.55 476.744 1070.24 475.064 1067.25C473.43 1064.22 472.614 1060.72 472.614 1056.75C472.614 1052.83 473.454 1049.38 475.134 1046.39C476.86 1043.36 479.194 1041.05 482.134 1039.46C485.074 1037.83 488.364 1037.01 492.004 1037.01C495.644 1037.01 498.934 1037.83 501.874 1039.46C504.814 1041.05 507.124 1043.33 508.804 1046.32C510.53 1049.31 511.394 1052.78 511.394 1056.75C511.394 1060.72 510.507 1064.22 508.734 1067.25C507.007 1070.24 504.65 1072.55 501.664 1074.18C498.677 1075.81 495.364 1076.63 491.724 1076.63ZM491.724 1071.03C494.01 1071.03 496.157 1070.49 498.164 1069.42C500.17 1068.35 501.78 1066.74 502.994 1064.59C504.254 1062.44 504.884 1059.83 504.884 1056.75C504.884 1053.67 504.277 1051.06 503.064 1048.91C501.85 1046.76 500.264 1045.18 498.304 1044.15C496.344 1043.08 494.22 1042.54 491.934 1042.54C489.6 1042.54 487.454 1043.08 485.494 1044.15C483.58 1045.18 482.04 1046.76 480.874 1048.91C479.707 1051.06 479.124 1053.67 479.124 1056.75C479.124 1059.88 479.684 1062.51 480.804 1064.66C481.97 1066.81 483.51 1068.42 485.424 1069.49C487.337 1070.52 489.437 1071.03 491.724 1071.03ZM553.789 1037.64V1076H547.419V1070.33C546.206 1072.29 544.502 1073.83 542.309 1074.95C540.162 1076.02 537.782 1076.56 535.169 1076.56C532.182 1076.56 529.499 1075.95 527.119 1074.74C524.739 1073.48 522.849 1071.61 521.449 1069.14C520.096 1066.67 519.419 1063.66 519.419 1060.11V1037.64H525.719V1059.27C525.719 1063.05 526.676 1065.97 528.589 1068.02C530.502 1070.03 533.116 1071.03 536.429 1071.03C539.836 1071.03 542.519 1069.98 544.479 1067.88C546.439 1065.78 547.419 1062.72 547.419 1058.71V1037.64H553.789ZM570.914 1043.87C572.034 1041.68 573.621 1039.97 575.674 1038.76C577.774 1037.55 580.318 1036.94 583.304 1036.94V1043.52H581.624C574.484 1043.52 570.914 1047.39 570.914 1055.14V1076H564.544V1037.64H570.914V1043.87ZM612.75 1031.41C611.536 1031.41 610.51 1030.99 609.67 1030.15C608.876 1029.31 608.48 1028.28 608.48 1027.07C608.48 1025.86 608.876 1024.83 609.67 1023.99C610.51 1023.15 611.536 1022.73 612.75 1022.73C613.963 1022.73 614.966 1023.15 615.76 1023.99C616.6 1024.83 617.02 1025.86 617.02 1027.07C617.02 1028.28 616.6 1029.31 615.76 1030.15C614.966 1030.99 613.963 1031.41 612.75 1031.41ZM615.9 1084.33C615.9 1087.74 615.036 1090.23 613.31 1091.82C611.583 1093.41 609.063 1094.2 605.75 1094.2H602.04V1088.81H604.7C606.473 1088.81 607.71 1088.46 608.41 1087.76C609.156 1087.06 609.53 1085.87 609.53 1084.19V1037.64H615.9V1084.33ZM643.413 1076.63C639.82 1076.63 636.553 1075.81 633.613 1074.18C630.72 1072.55 628.433 1070.24 626.753 1067.25C625.12 1064.22 624.303 1060.72 624.303 1056.75C624.303 1052.83 625.143 1049.38 626.823 1046.39C628.55 1043.36 630.883 1041.05 633.823 1039.46C636.763 1037.83 640.053 1037.01 643.693 1037.01C647.333 1037.01 650.623 1037.83 653.563 1039.46C656.503 1041.05 658.813 1043.33 660.493 1046.32C662.22 1049.31 663.083 1052.78 663.083 1056.75C663.083 1060.72 662.196 1064.22 660.423 1067.25C658.696 1070.24 656.34 1072.55 653.353 1074.18C650.366 1075.81 647.053 1076.63 643.413 1076.63ZM643.413 1071.03C645.7 1071.03 647.846 1070.49 649.853 1069.42C651.86 1068.35 653.47 1066.74 654.683 1064.59C655.943 1062.44 656.573 1059.83 656.573 1056.75C656.573 1053.67 655.966 1051.06 654.753 1048.91C653.54 1046.76 651.953 1045.18 649.993 1044.15C648.033 1043.08 645.91 1042.54 643.623 1042.54C641.29 1042.54 639.143 1043.08 637.183 1044.15C635.27 1045.18 633.73 1046.76 632.563 1048.91C631.396 1051.06 630.813 1053.67 630.813 1056.75C630.813 1059.88 631.373 1062.51 632.493 1064.66C633.66 1066.81 635.2 1068.42 637.113 1069.49C639.026 1070.52 641.126 1071.03 643.413 1071.03ZM705.478 1037.64V1076H699.108V1070.33C697.895 1072.29 696.192 1073.83 693.998 1074.95C691.852 1076.02 689.472 1076.56 686.858 1076.56C683.872 1076.56 681.188 1075.95 678.808 1074.74C676.428 1073.48 674.538 1071.61 673.138 1069.14C671.785 1066.67 671.108 1063.66 671.108 1060.11V1037.64H677.408V1059.27C677.408 1063.05 678.365 1065.97 680.278 1068.02C682.192 1070.03 684.805 1071.03 688.118 1071.03C691.525 1071.03 694.208 1069.98 696.168 1067.88C698.128 1065.78 699.108 1062.72 699.108 1058.71V1037.64H705.478ZM722.604 1043.87C723.724 1041.68 725.31 1039.97 727.364 1038.76C729.464 1037.55 732.007 1036.94 734.994 1036.94V1043.52H733.314C726.174 1043.52 722.604 1047.39 722.604 1055.14V1076H716.234V1037.64H722.604V1043.87ZM761.037 1036.94C765.704 1036.94 769.484 1038.36 772.377 1041.21C775.27 1044.01 776.717 1048.07 776.717 1053.39V1076H770.417V1054.3C770.417 1050.47 769.46 1047.56 767.547 1045.55C765.634 1043.5 763.02 1042.47 759.707 1042.47C756.347 1042.47 753.664 1043.52 751.657 1045.62C749.697 1047.72 748.717 1050.78 748.717 1054.79V1076H742.347V1037.64H748.717V1043.1C749.977 1041.14 751.68 1039.62 753.827 1038.55C756.02 1037.48 758.424 1036.94 761.037 1036.94ZM822.122 1055.35C822.122 1056.56 822.052 1057.85 821.912 1059.2H791.252C791.486 1062.98 792.769 1065.94 795.102 1068.09C797.482 1070.19 800.352 1071.24 803.712 1071.24C806.466 1071.24 808.752 1070.61 810.572 1069.35C812.439 1068.04 813.746 1066.32 814.492 1064.17H821.352C820.326 1067.86 818.272 1070.87 815.192 1073.2C812.112 1075.49 808.286 1076.63 803.712 1076.63C800.072 1076.63 796.806 1075.81 793.912 1074.18C791.066 1072.55 788.826 1070.24 787.192 1067.25C785.559 1064.22 784.742 1060.72 784.742 1056.75C784.742 1052.78 785.536 1049.31 787.122 1046.32C788.709 1043.33 790.926 1041.05 793.772 1039.46C796.666 1037.83 799.979 1037.01 803.712 1037.01C807.352 1037.01 810.572 1037.8 813.372 1039.39C816.172 1040.98 818.319 1043.17 819.812 1045.97C821.352 1048.72 822.122 1051.85 822.122 1055.35ZM815.542 1054.02C815.542 1051.59 815.006 1049.52 813.932 1047.79C812.859 1046.02 811.389 1044.69 809.522 1043.8C807.702 1042.87 805.672 1042.4 803.432 1042.4C800.212 1042.4 797.459 1043.43 795.172 1045.48C792.932 1047.53 791.649 1050.38 791.322 1054.02H815.542ZM863.571 1037.64L840.471 1094.06H833.891L841.451 1075.58L825.981 1037.64H833.051L845.091 1068.72L856.991 1037.64H863.571ZM886.256 1056.68C886.256 1052.76 887.049 1049.33 888.636 1046.39C890.223 1043.4 892.393 1041.09 895.146 1039.46C897.946 1037.83 901.049 1037.01 904.456 1037.01C907.816 1037.01 910.733 1037.73 913.206 1039.18C915.679 1040.63 917.523 1042.45 918.736 1044.64V1037.64H925.176V1076H918.736V1068.86C917.476 1071.1 915.586 1072.97 913.066 1074.46C910.593 1075.91 907.699 1076.63 904.386 1076.63C900.979 1076.63 897.899 1075.79 895.146 1074.11C892.393 1072.43 890.223 1070.07 888.636 1067.04C887.049 1064.01 886.256 1060.55 886.256 1056.68ZM918.736 1056.75C918.736 1053.86 918.153 1051.34 916.986 1049.19C915.819 1047.04 914.233 1045.41 912.226 1044.29C910.266 1043.12 908.096 1042.54 905.716 1042.54C903.336 1042.54 901.166 1043.1 899.206 1044.22C897.246 1045.34 895.683 1046.97 894.516 1049.12C893.349 1051.27 892.766 1053.79 892.766 1056.68C892.766 1059.62 893.349 1062.19 894.516 1064.38C895.683 1066.53 897.246 1068.18 899.206 1069.35C901.166 1070.47 903.336 1071.03 905.716 1071.03C908.096 1071.03 910.266 1070.47 912.226 1069.35C914.233 1068.18 915.819 1066.53 916.986 1064.38C918.153 1062.19 918.736 1059.64 918.736 1056.75ZM954.631 1036.94C959.297 1036.94 963.077 1038.36 965.971 1041.21C968.864 1044.01 970.311 1048.07 970.311 1053.39V1076H964.011V1054.3C964.011 1050.47 963.054 1047.56 961.141 1045.55C959.227 1043.5 956.614 1042.47 953.301 1042.47C949.941 1042.47 947.257 1043.52 945.251 1045.62C943.291 1047.72 942.311 1050.78 942.311 1054.79V1076H935.941V1037.64H942.311V1043.1C943.571 1041.14 945.274 1039.62 947.421 1038.55C949.614 1037.48 952.017 1036.94 954.631 1036.94ZM978.336 1056.68C978.336 1052.76 979.13 1049.33 980.716 1046.39C982.303 1043.4 984.473 1041.09 987.226 1039.46C990.026 1037.83 993.153 1037.01 996.606 1037.01C999.593 1037.01 1002.37 1037.71 1004.94 1039.11C1007.5 1040.46 1009.46 1042.26 1010.82 1044.5V1024.2H1017.26V1076H1010.82V1068.79C1009.56 1071.08 1007.69 1072.97 1005.22 1074.46C1002.74 1075.91 999.85 1076.63 996.536 1076.63C993.13 1076.63 990.026 1075.79 987.226 1074.11C984.473 1072.43 982.303 1070.07 980.716 1067.04C979.13 1064.01 978.336 1060.55 978.336 1056.68ZM1010.82 1056.75C1010.82 1053.86 1010.23 1051.34 1009.07 1049.19C1007.9 1047.04 1006.31 1045.41 1004.31 1044.29C1002.35 1043.12 1000.18 1042.54 997.796 1042.54C995.416 1042.54 993.246 1043.1 991.286 1044.22C989.326 1045.34 987.763 1046.97 986.596 1049.12C985.43 1051.27 984.846 1053.79 984.846 1056.68C984.846 1059.62 985.43 1062.19 986.596 1064.38C987.763 1066.53 989.326 1068.18 991.286 1069.35C993.246 1070.47 995.416 1071.03 997.796 1071.03C1000.18 1071.03 1002.35 1070.47 1004.31 1069.35C1006.31 1068.18 1007.9 1066.53 1009.07 1064.38C1010.23 1062.19 1010.82 1059.64 1010.82 1056.75ZM1044.3 1056.75C1044.3 1052.78 1045.1 1049.33 1046.68 1046.39C1048.27 1043.4 1050.46 1041.09 1053.26 1039.46C1056.11 1037.83 1059.35 1037.01 1062.99 1037.01C1067.71 1037.01 1071.58 1038.15 1074.61 1040.44C1077.69 1042.73 1079.72 1045.9 1080.7 1049.96H1073.84C1073.19 1047.63 1071.91 1045.78 1069.99 1044.43C1068.13 1043.08 1065.79 1042.4 1062.99 1042.4C1059.35 1042.4 1056.41 1043.66 1054.17 1046.18C1051.93 1048.65 1050.81 1052.18 1050.81 1056.75C1050.81 1061.37 1051.93 1064.94 1054.17 1067.46C1056.41 1069.98 1059.35 1071.24 1062.99 1071.24C1065.79 1071.24 1068.13 1070.59 1069.99 1069.28C1071.86 1067.97 1073.14 1066.11 1073.84 1063.68H1080.7C1079.68 1067.6 1077.62 1070.75 1074.54 1073.13C1071.46 1075.46 1067.61 1076.63 1062.99 1076.63C1059.35 1076.63 1056.11 1075.81 1053.26 1074.18C1050.46 1072.55 1048.27 1070.24 1046.68 1067.25C1045.1 1064.26 1044.3 1060.76 1044.3 1056.75ZM1105.93 1076.63C1102.34 1076.63 1099.07 1075.81 1096.13 1074.18C1093.24 1072.55 1090.95 1070.24 1089.27 1067.25C1087.64 1064.22 1086.82 1060.72 1086.82 1056.75C1086.82 1052.83 1087.66 1049.38 1089.34 1046.39C1091.07 1043.36 1093.4 1041.05 1096.34 1039.46C1099.28 1037.83 1102.57 1037.01 1106.21 1037.01C1109.85 1037.01 1113.14 1037.83 1116.08 1039.46C1119.02 1041.05 1121.33 1043.33 1123.01 1046.32C1124.74 1049.31 1125.6 1052.78 1125.6 1056.75C1125.6 1060.72 1124.72 1064.22 1122.94 1067.25C1121.22 1070.24 1118.86 1072.55 1115.87 1074.18C1112.89 1075.81 1109.57 1076.63 1105.93 1076.63ZM1105.93 1071.03C1108.22 1071.03 1110.37 1070.49 1112.37 1069.42C1114.38 1068.35 1115.99 1066.74 1117.2 1064.59C1118.46 1062.44 1119.09 1059.83 1119.09 1056.75C1119.09 1053.67 1118.49 1051.06 1117.27 1048.91C1116.06 1046.76 1114.47 1045.18 1112.51 1044.15C1110.55 1043.08 1108.43 1042.54 1106.14 1042.54C1103.81 1042.54 1101.66 1043.08 1099.7 1044.15C1097.79 1045.18 1096.25 1046.76 1095.08 1048.91C1093.92 1051.06 1093.33 1053.67 1093.33 1056.75C1093.33 1059.88 1093.89 1062.51 1095.01 1064.66C1096.18 1066.81 1097.72 1068.42 1099.63 1069.49C1101.55 1070.52 1103.65 1071.03 1105.93 1071.03ZM1152.67 1036.94C1157.33 1036.94 1161.11 1038.36 1164.01 1041.21C1166.9 1044.01 1168.35 1048.07 1168.35 1053.39V1076H1162.05V1054.3C1162.05 1050.47 1161.09 1047.56 1159.18 1045.55C1157.26 1043.5 1154.65 1042.47 1151.34 1042.47C1147.98 1042.47 1145.29 1043.52 1143.29 1045.62C1141.33 1047.72 1140.35 1050.78 1140.35 1054.79V1076H1133.98V1037.64H1140.35V1043.1C1141.61 1041.14 1143.31 1039.62 1145.46 1038.55C1147.65 1037.48 1150.05 1036.94 1152.67 1036.94ZM1197.44 1036.94C1202.11 1036.94 1205.89 1038.36 1208.78 1041.21C1211.68 1044.01 1213.12 1048.07 1213.12 1053.39V1076H1206.82V1054.3C1206.82 1050.47 1205.87 1047.56 1203.95 1045.55C1202.04 1043.5 1199.43 1042.47 1196.11 1042.47C1192.75 1042.47 1190.07 1043.52 1188.06 1045.62C1186.1 1047.72 1185.12 1050.78 1185.12 1054.79V1076H1178.75V1037.64H1185.12V1043.1C1186.38 1041.14 1188.09 1039.62 1190.23 1038.55C1192.43 1037.48 1194.83 1036.94 1197.44 1036.94ZM1258.53 1055.35C1258.53 1056.56 1258.46 1057.85 1258.32 1059.2H1227.66C1227.89 1062.98 1229.18 1065.94 1231.51 1068.09C1233.89 1070.19 1236.76 1071.24 1240.12 1071.24C1242.87 1071.24 1245.16 1070.61 1246.98 1069.35C1248.85 1068.04 1250.15 1066.32 1250.9 1064.17H1257.76C1256.73 1067.86 1254.68 1070.87 1251.6 1073.2C1248.52 1075.49 1244.69 1076.63 1240.12 1076.63C1236.48 1076.63 1233.21 1075.81 1230.32 1074.18C1227.47 1072.55 1225.23 1070.24 1223.6 1067.25C1221.97 1064.22 1221.15 1060.72 1221.15 1056.75C1221.15 1052.78 1221.94 1049.31 1223.53 1046.32C1225.12 1043.33 1227.33 1041.05 1230.18 1039.46C1233.07 1037.83 1236.39 1037.01 1240.12 1037.01C1243.76 1037.01 1246.98 1037.8 1249.78 1039.39C1252.58 1040.98 1254.73 1043.17 1256.22 1045.97C1257.76 1048.72 1258.53 1051.85 1258.53 1055.35ZM1251.95 1054.02C1251.95 1051.59 1251.41 1049.52 1250.34 1047.79C1249.27 1046.02 1247.8 1044.69 1245.93 1043.8C1244.11 1042.87 1242.08 1042.4 1239.84 1042.4C1236.62 1042.4 1233.87 1043.43 1231.58 1045.48C1229.34 1047.53 1228.06 1050.38 1227.73 1054.02H1251.95ZM1264.56 1056.75C1264.56 1052.78 1265.35 1049.33 1266.94 1046.39C1268.52 1043.4 1270.72 1041.09 1273.52 1039.46C1276.36 1037.83 1279.61 1037.01 1283.25 1037.01C1287.96 1037.01 1291.83 1038.15 1294.87 1040.44C1297.95 1042.73 1299.98 1045.9 1300.96 1049.96H1294.1C1293.44 1047.63 1292.16 1045.78 1290.25 1044.43C1288.38 1043.08 1286.05 1042.4 1283.25 1042.4C1279.61 1042.4 1276.67 1043.66 1274.43 1046.18C1272.19 1048.65 1271.07 1052.18 1271.07 1056.75C1271.07 1061.37 1272.19 1064.94 1274.43 1067.46C1276.67 1069.98 1279.61 1071.24 1283.25 1071.24C1286.05 1071.24 1288.38 1070.59 1290.25 1069.28C1292.11 1067.97 1293.4 1066.11 1294.1 1063.68H1300.96C1299.93 1067.6 1297.88 1070.75 1294.8 1073.13C1291.72 1075.46 1287.87 1076.63 1283.25 1076.63C1279.61 1076.63 1276.36 1075.81 1273.52 1074.18C1270.72 1072.55 1268.52 1070.24 1266.94 1067.25C1265.35 1064.26 1264.56 1060.76 1264.56 1056.75ZM1317.23 1042.89V1065.5C1317.23 1067.37 1317.62 1068.7 1318.42 1069.49C1319.21 1070.24 1320.59 1070.61 1322.55 1070.61H1327.24V1076H1321.5C1317.95 1076 1315.29 1075.18 1313.52 1073.55C1311.74 1071.92 1310.86 1069.23 1310.86 1065.5V1042.89H1305.89V1037.64H1310.86V1027.98H1317.23V1037.64H1327.24V1042.89H1317.23ZM1404.72 1037.64L1392.75 1076H1386.17L1376.93 1045.55L1367.69 1076H1361.11L1349.07 1037.64H1355.58L1364.4 1069.84L1373.92 1037.64H1380.43L1389.74 1069.91L1398.42 1037.64H1404.72ZM1414.33 1031.41C1413.12 1031.41 1412.09 1030.99 1411.25 1030.15C1410.41 1029.31 1409.99 1028.28 1409.99 1027.07C1409.99 1025.86 1410.41 1024.83 1411.25 1023.99C1412.09 1023.15 1413.12 1022.73 1414.33 1022.73C1415.5 1022.73 1416.48 1023.15 1417.27 1023.99C1418.11 1024.83 1418.53 1025.86 1418.53 1027.07C1418.53 1028.28 1418.11 1029.31 1417.27 1030.15C1416.48 1030.99 1415.5 1031.41 1414.33 1031.41ZM1417.41 1037.64V1076H1411.04V1037.64H1417.41ZM1436.04 1042.89V1065.5C1436.04 1067.37 1436.43 1068.7 1437.23 1069.49C1438.02 1070.24 1439.4 1070.61 1441.35 1070.61H1446.05V1076H1440.31C1436.76 1076 1434.1 1075.18 1432.33 1073.55C1430.55 1071.92 1429.67 1069.23 1429.67 1065.5V1042.89H1424.7V1037.64H1429.67V1027.98H1436.04V1037.64H1446.05V1042.89H1436.04ZM1472.8 1036.94C1475.7 1036.94 1478.31 1037.57 1480.64 1038.83C1482.98 1040.04 1484.8 1041.89 1486.1 1044.36C1487.46 1046.83 1488.13 1049.84 1488.13 1053.39V1076H1481.83V1054.3C1481.83 1050.47 1480.88 1047.56 1478.96 1045.55C1477.05 1043.5 1474.44 1042.47 1471.12 1042.47C1467.76 1042.47 1465.08 1043.52 1463.07 1045.62C1461.11 1047.72 1460.13 1050.78 1460.13 1054.79V1076H1453.76V1024.2H1460.13V1043.1C1461.39 1041.14 1463.12 1039.62 1465.31 1038.55C1467.55 1037.48 1470.05 1036.94 1472.8 1036.94ZM284.43 1142.64L261.33 1199.06H254.75L262.31 1180.58L246.84 1142.64H253.91L265.95 1173.72L277.85 1142.64H284.43ZM307.563 1181.63C303.97 1181.63 300.703 1180.81 297.763 1179.18C294.87 1177.55 292.583 1175.24 290.903 1172.25C289.27 1169.22 288.453 1165.72 288.453 1161.75C288.453 1157.83 289.293 1154.38 290.973 1151.39C292.7 1148.36 295.033 1146.05 297.973 1144.46C300.913 1142.83 304.203 1142.01 307.843 1142.01C311.483 1142.01 314.773 1142.83 317.713 1144.46C320.653 1146.05 322.963 1148.33 324.643 1151.32C326.37 1154.31 327.233 1157.78 327.233 1161.75C327.233 1165.72 326.347 1169.22 324.573 1172.25C322.847 1175.24 320.49 1177.55 317.503 1179.18C314.517 1180.81 311.203 1181.63 307.563 1181.63ZM307.563 1176.03C309.85 1176.03 311.997 1175.49 314.003 1174.42C316.01 1173.35 317.62 1171.74 318.833 1169.59C320.093 1167.44 320.723 1164.83 320.723 1161.75C320.723 1158.67 320.117 1156.06 318.903 1153.91C317.69 1151.76 316.103 1150.18 314.143 1149.15C312.183 1148.08 310.06 1147.54 307.773 1147.54C305.44 1147.54 303.293 1148.08 301.333 1149.15C299.42 1150.18 297.88 1151.76 296.713 1153.91C295.547 1156.06 294.963 1158.67 294.963 1161.75C294.963 1164.88 295.523 1167.51 296.643 1169.66C297.81 1171.81 299.35 1173.42 301.263 1174.49C303.177 1175.52 305.277 1176.03 307.563 1176.03ZM369.629 1142.64V1181H363.259V1175.33C362.045 1177.29 360.342 1178.83 358.149 1179.95C356.002 1181.02 353.622 1181.56 351.009 1181.56C348.022 1181.56 345.339 1180.95 342.959 1179.74C340.579 1178.48 338.689 1176.61 337.289 1174.14C335.935 1171.67 335.259 1168.66 335.259 1165.11V1142.64H341.559V1164.27C341.559 1168.05 342.515 1170.97 344.429 1173.02C346.342 1175.03 348.955 1176.03 352.269 1176.03C355.675 1176.03 358.359 1174.98 360.319 1172.88C362.279 1170.78 363.259 1167.72 363.259 1163.71V1142.64H369.629ZM386.754 1148.87C387.874 1146.68 389.461 1144.97 391.514 1143.76C393.614 1142.55 396.157 1141.94 399.144 1141.94V1148.52H397.464C390.324 1148.52 386.754 1152.39 386.754 1160.14V1181H380.384V1142.64H386.754V1148.87ZM432.93 1147.89V1170.5C432.93 1172.37 433.326 1173.7 434.12 1174.49C434.913 1175.24 436.29 1175.61 438.25 1175.61H442.94V1181H437.2C433.653 1181 430.993 1180.18 429.22 1178.55C427.446 1176.92 426.56 1174.23 426.56 1170.5V1147.89H421.59V1142.64H426.56V1132.98H432.93V1142.64H442.94V1147.89H432.93ZM485.658 1160.35C485.658 1161.56 485.588 1162.85 485.448 1164.2H454.788C455.021 1167.98 456.304 1170.94 458.638 1173.09C461.018 1175.19 463.888 1176.24 467.248 1176.24C470.001 1176.24 472.288 1175.61 474.108 1174.35C475.974 1173.04 477.281 1171.32 478.028 1169.17H484.888C483.861 1172.86 481.808 1175.87 478.728 1178.2C475.648 1180.49 471.821 1181.63 467.248 1181.63C463.608 1181.63 460.341 1180.81 457.448 1179.18C454.601 1177.55 452.361 1175.24 450.728 1172.25C449.094 1169.22 448.278 1165.72 448.278 1161.75C448.278 1157.78 449.071 1154.31 450.658 1151.32C452.244 1148.33 454.461 1146.05 457.308 1144.46C460.201 1142.83 463.514 1142.01 467.248 1142.01C470.888 1142.01 474.108 1142.8 476.908 1144.39C479.708 1145.98 481.854 1148.17 483.348 1150.97C484.888 1153.72 485.658 1156.85 485.658 1160.35ZM479.078 1159.02C479.078 1156.59 478.541 1154.52 477.468 1152.79C476.394 1151.02 474.924 1149.69 473.058 1148.8C471.238 1147.87 469.208 1147.4 466.968 1147.4C463.748 1147.4 460.994 1148.43 458.708 1150.48C456.468 1152.53 455.184 1155.38 454.858 1159.02H479.078ZM491.686 1161.68C491.686 1157.76 492.479 1154.33 494.066 1151.39C495.652 1148.4 497.822 1146.09 500.576 1144.46C503.376 1142.83 506.479 1142.01 509.886 1142.01C513.246 1142.01 516.162 1142.73 518.636 1144.18C521.109 1145.63 522.952 1147.45 524.166 1149.64V1142.64H530.606V1181H524.166V1173.86C522.906 1176.1 521.016 1177.97 518.496 1179.46C516.022 1180.91 513.129 1181.63 509.816 1181.63C506.409 1181.63 503.329 1180.79 500.576 1179.11C497.822 1177.43 495.652 1175.07 494.066 1172.04C492.479 1169.01 491.686 1165.55 491.686 1161.68ZM524.166 1161.75C524.166 1158.86 523.582 1156.34 522.416 1154.19C521.249 1152.04 519.662 1150.41 517.656 1149.29C515.696 1148.12 513.526 1147.54 511.146 1147.54C508.766 1147.54 506.596 1148.1 504.636 1149.22C502.676 1150.34 501.112 1151.97 499.946 1154.12C498.779 1156.27 498.196 1158.79 498.196 1161.68C498.196 1164.62 498.779 1167.19 499.946 1169.38C501.112 1171.53 502.676 1173.18 504.636 1174.35C506.596 1175.47 508.766 1176.03 511.146 1176.03C513.526 1176.03 515.696 1175.47 517.656 1174.35C519.662 1173.18 521.249 1171.53 522.416 1169.38C523.582 1167.19 524.166 1164.64 524.166 1161.75ZM587.5 1141.94C590.487 1141.94 593.147 1142.57 595.48 1143.83C597.814 1145.04 599.657 1146.89 601.01 1149.36C602.364 1151.83 603.04 1154.84 603.04 1158.39V1181H596.74V1159.3C596.74 1155.47 595.784 1152.56 593.87 1150.55C592.004 1148.5 589.46 1147.47 586.24 1147.47C582.927 1147.47 580.29 1148.54 578.33 1150.69C576.37 1152.79 575.39 1155.85 575.39 1159.86V1181H569.09V1159.3C569.09 1155.47 568.134 1152.56 566.22 1150.55C564.354 1148.5 561.81 1147.47 558.59 1147.47C555.277 1147.47 552.64 1148.54 550.68 1150.69C548.72 1152.79 547.74 1155.85 547.74 1159.86V1181H541.37V1142.64H547.74V1148.17C549 1146.16 550.68 1144.62 552.78 1143.55C554.927 1142.48 557.284 1141.94 559.85 1141.94C563.07 1141.94 565.917 1142.66 568.39 1144.11C570.864 1145.56 572.707 1147.68 573.92 1150.48C574.994 1147.77 576.767 1145.67 579.24 1144.18C581.714 1142.69 584.467 1141.94 587.5 1141.94ZM615.52 1181.42C614.306 1181.42 613.28 1181 612.44 1180.16C611.6 1179.32 611.18 1178.29 611.18 1177.08C611.18 1175.87 611.6 1174.84 612.44 1174C613.28 1173.16 614.306 1172.74 615.52 1172.74C616.686 1172.74 617.666 1173.16 618.46 1174C619.3 1174.84 619.72 1175.87 619.72 1177.08C619.72 1178.29 619.3 1179.32 618.46 1180.16C617.666 1181 616.686 1181.42 615.52 1181.42Z" fill="#EBEBEC"/>
</g>
<path d="M293.616 556.832C300.016 557.685 304.923 559.819 308.336 563.232C311.749 566.645 314.651 572.277 317.04 580.128L326 612H316.784L307.952 580.896C306.757 576.715 305.349 573.472 303.728 571.168C302.192 568.779 300.101 567.029 297.456 565.92C294.811 564.811 291.269 564.085 286.832 563.744L267.376 583.84V612H258.16V522.4H267.376V572.704L315.504 522.4H326.896L293.616 556.832ZM372.145 613.408C360.796 613.408 352.092 610.635 346.033 605.088C339.974 599.456 336.945 591.349 336.945 580.768V553.632C336.945 543.051 339.974 534.987 346.033 529.44C352.092 523.808 360.796 520.992 372.145 520.992C383.494 520.992 392.198 523.808 398.257 529.44C404.316 534.987 407.345 543.051 407.345 553.632V580.768C407.345 591.349 404.316 599.456 398.257 605.088C392.198 610.635 383.494 613.408 372.145 613.408ZM372.145 605.984C380.508 605.984 386.908 603.808 391.345 599.456C395.868 595.104 398.129 588.875 398.129 580.768V553.632C398.129 545.525 395.868 539.296 391.345 534.944C386.908 530.592 380.508 528.416 372.145 528.416C363.782 528.416 357.34 530.592 352.817 534.944C348.38 539.296 346.161 545.525 346.161 553.632V580.768C346.161 588.875 348.38 595.104 352.817 599.456C357.34 603.808 363.782 605.984 372.145 605.984Z" fill="white"/>
<path d="M661.336 583.2H620.888L612.056 612H602.84L626.008 537.12C627.885 531.061 629.891 526.88 632.024 524.576C634.243 522.187 637.272 520.992 641.112 520.992C644.952 520.992 647.981 522.187 650.2 524.576C652.419 526.88 654.467 531.061 656.344 537.12L679.512 612H670.168L661.336 583.2ZM659.16 576.032L647.256 537.248C646.317 534.347 645.421 532.341 644.568 531.232C643.715 530.123 642.563 529.568 641.112 529.568C639.747 529.568 638.637 530.123 637.784 531.232C636.931 532.341 636.035 534.347 635.096 537.248L623.192 576.032H659.16ZM730.991 556.832C737.391 557.685 742.298 559.819 745.711 563.232C749.124 566.645 752.026 572.277 754.415 580.128L763.375 612H754.159L745.327 580.896C744.132 576.715 742.724 573.472 741.103 571.168C739.567 568.779 737.476 567.029 734.831 565.92C732.186 564.811 728.644 564.085 724.207 563.744L704.751 583.84V612H695.535V522.4H704.751V572.704L752.879 522.4H764.271L730.991 556.832ZM830.836 583.2H790.388L781.556 612H772.34L795.508 537.12C797.385 531.061 799.391 526.88 801.524 524.576C803.743 522.187 806.772 520.992 810.612 520.992C814.452 520.992 817.481 522.187 819.7 524.576C821.919 526.88 823.967 531.061 825.844 537.12L849.012 612H839.668L830.836 583.2ZM828.66 576.032L816.756 537.248C815.817 534.347 814.921 532.341 814.068 531.232C813.215 530.123 812.063 529.568 810.612 529.568C809.247 529.568 808.137 530.123 807.284 531.232C806.431 532.341 805.535 534.347 804.596 537.248L792.692 576.032H828.66ZM865.035 522.4H874.251V612H865.035V522.4Z" fill="white"/>
<g filter="url(#filter1_ii_158_2909)">
<path d="M453.888 538.308C455.873 531.501 465.076 530.451 468.545 536.634L515.182 619.778C515.835 620.943 516.77 621.926 517.9 622.637L533.161 632.233C533.229 632.276 533.303 632.308 533.381 632.329C534.289 632.573 534.113 633.91 533.173 633.91H501.623H436.667C431.334 633.91 427.494 628.789 428.987 623.669L453.888 538.308Z" fill="url(#paint0_linear_158_2909)"/>
<path d="M476.951 489.967C478.879 483.201 487.974 482.039 491.541 488.104L515.261 528.438L534.445 561.457C534.849 562.151 535.355 562.781 535.946 563.325L549.071 575.401C549.67 575.952 550.35 576.409 551.087 576.755L558.103 580.05C559.167 580.55 560.328 580.809 561.504 580.809H564.673C567.459 580.809 570.045 582.259 571.498 584.636L591.558 617.447C594.817 622.778 590.981 629.62 584.732 629.62H544.21C542.609 629.62 541.045 629.139 539.72 628.241L523.797 617.44C522.789 616.756 521.95 615.851 521.345 614.793L469.954 525.014C469.726 524.616 469.303 524.371 468.844 524.371C467.995 524.371 467.381 523.558 467.614 522.741L476.951 489.967Z" fill="url(#paint1_linear_158_2909)"/>
<path d="M530.071 517.761C531.093 511.022 540.136 509.518 543.284 515.564L575.137 576.741L562.348 575.724L553.822 572.165L540.119 559.962L525.808 535.862L530.071 517.761Z" fill="url(#paint2_linear_158_2909)"/>
</g>
<defs>
<filter id="filter0_d_158_2909" x="0.49939" y="0.499512" width="1843" height="1570.68" filterUnits="userSpaceOnUse" color-interpolation-filters="sRGB">
<feFlood flood-opacity="0" result="BackgroundImageFix"/>
<feColorMatrix in="SourceAlpha" type="matrix" values="0 0 0 0 0 0 0 0 0 0 0 0 0 0 0 0 0 0 127 0" result="hardAlpha"/>
<feOffset dy="4"/>
<feGaussianBlur stdDeviation="2"/>
<feComposite in2="hardAlpha" operator="out"/>
<feColorMatrix type="matrix" values="0 0 0 0 0 0 0 0 0 0 0 0 0 0 0 0 0 0 0.25 0"/>
<feBlend mode="normal" in2="BackgroundImageFix" result="effect1_dropShadow_158_2909"/>
<feBlend mode="normal" in="SourceGraphic" in2="effect1_dropShadow_158_2909" result="shape"/>
</filter>
<filter id="filter1_ii_158_2909" x="428.662" y="484.157" width="164.083" height="153.752" filterUnits="userSpaceOnUse" color-interpolation-filters="sRGB">
<feFlood flood-opacity="0" result="BackgroundImageFix"/>
<feBlend mode="normal" in="SourceGraphic" in2="BackgroundImageFix" result="shape"/>
<feColorMatrix in="SourceAlpha" type="matrix" values="0 0 0 0 0 0 0 0 0 0 0 0 0 0 0 0 0 0 127 0" result="hardAlpha"/>
<feOffset dy="4"/>
<feGaussianBlur stdDeviation="2"/>
<feComposite in2="hardAlpha" operator="arithmetic" k2="-1" k3="1"/>
<feColorMatrix type="matrix" values="0 0 0 0 0 0 0 0 0 0 0 0 0 0 0 0 0 0 0.25 0"/>
<feBlend mode="normal" in2="shape" result="effect1_innerShadow_158_2909"/>
<feColorMatrix in="SourceAlpha" type="matrix" values="0 0 0 0 0 0 0 0 0 0 0 0 0 0 0 0 0 0 127 0" result="hardAlpha"/>
<feOffset dy="4"/>
<feGaussianBlur stdDeviation="2"/>
<feComposite in2="hardAlpha" operator="arithmetic" k2="-1" k3="1"/>
<feColorMatrix type="matrix" values="0 0 0 0 0 0 0 0 0 0 0 0 0 0 0 0 0 0 0.25 0"/>
<feBlend mode="normal" in2="effect1_innerShadow_158_2909" result="effect2_innerShadow_158_2909"/>
</filter>
<linearGradient id="paint0_linear_158_2909" x1="479.364" y1="539.662" x2="479.995" y2="632.03" gradientUnits="userSpaceOnUse">
<stop offset="0.0688547" stop-color="#001B47"/>
<stop offset="1" stop-color="#11E4F5"/>
</linearGradient>
<linearGradient id="paint1_linear_158_2909" x1="529.264" y1="499.188" x2="530.302" y2="627.017" gradientUnits="userSpaceOnUse">
<stop offset="0.0688547" stop-color="#001B47"/>
<stop offset="1" stop-color="#11E4F5"/>
</linearGradient>
<linearGradient id="paint2_linear_158_2909" x1="549.047" y1="510.263" x2="549.768" y2="575.411" gradientUnits="userSpaceOnUse">
<stop offset="0.0688547" stop-color="#001B47"/>
<stop offset="1" stop-color="#11E4F5"/>
</linearGradient>
</defs>
</svg>
