<svg width="641" height="172" viewBox="0 0 641 172" fill="none" xmlns="http://www.w3.org/2000/svg">
<path d="M47.616 84.832C54.016 85.6853 58.9227 87.8187 62.336 91.232C65.7493 94.6453 68.6507 100.277 71.04 108.128L80 140H70.784L61.952 108.896C60.7573 104.715 59.3493 101.472 57.728 99.168C56.192 96.7787 54.1013 95.0293 51.456 93.92C48.8107 92.8107 45.2693 92.0853 40.832 91.744L21.376 111.84V140H12.16V50.4H21.376V100.704L69.504 50.4H80.896L47.616 84.832ZM126.145 141.408C114.796 141.408 106.092 138.635 100.033 133.088C93.9743 127.456 90.945 119.349 90.945 108.768V81.632C90.945 71.0507 93.9743 62.9867 100.033 57.44C106.092 51.808 114.796 48.992 126.145 48.992C137.494 48.992 146.198 51.808 152.257 57.44C158.316 62.9867 161.345 71.0507 161.345 81.632V108.768C161.345 119.349 158.316 127.456 152.257 133.088C146.198 138.635 137.494 141.408 126.145 141.408ZM126.145 133.984C134.508 133.984 140.908 131.808 145.345 127.456C149.868 123.104 152.129 116.875 152.129 108.768V81.632C152.129 73.5253 149.868 67.296 145.345 62.944C140.908 58.592 134.508 56.416 126.145 56.416C117.782 56.416 111.34 58.592 106.817 62.944C102.38 67.296 100.161 73.5253 100.161 81.632V108.768C100.161 116.875 102.38 123.104 106.817 127.456C111.34 131.808 117.782 133.984 126.145 133.984Z" fill="white"/>
<path d="M415.336 111.2H374.888L366.056 140H356.84L380.008 65.12C381.885 59.0613 383.891 54.88 386.024 52.576C388.243 50.1867 391.272 48.992 395.112 48.992C398.952 48.992 401.981 50.1867 404.2 52.576C406.419 54.88 408.467 59.0613 410.344 65.12L433.512 140H424.168L415.336 111.2ZM413.16 104.032L401.256 65.248C400.317 62.3467 399.421 60.3413 398.568 59.232C397.715 58.1227 396.563 57.568 395.112 57.568C393.747 57.568 392.637 58.1227 391.784 59.232C390.931 60.3413 390.035 62.3467 389.096 65.248L377.192 104.032H413.16ZM484.991 84.832C491.391 85.6853 496.298 87.8187 499.711 91.232C503.124 94.6453 506.026 100.277 508.415 108.128L517.375 140H508.159L499.327 108.896C498.132 104.715 496.724 101.472 495.103 99.168C493.567 96.7787 491.476 95.0293 488.831 93.92C486.186 92.8107 482.644 92.0853 478.207 91.744L458.751 111.84V140H449.535V50.4H458.751V100.704L506.879 50.4H518.271L484.991 84.832ZM584.836 111.2H544.388L535.556 140H526.34L549.508 65.12C551.385 59.0613 553.391 54.88 555.524 52.576C557.743 50.1867 560.772 48.992 564.612 48.992C568.452 48.992 571.481 50.1867 573.7 52.576C575.919 54.88 577.967 59.0613 579.844 65.12L603.012 140H593.668L584.836 111.2ZM582.66 104.032L570.756 65.248C569.817 62.3467 568.921 60.3413 568.068 59.232C567.215 58.1227 566.063 57.568 564.612 57.568C563.247 57.568 562.137 58.1227 561.284 59.232C560.431 60.3413 559.535 62.3467 558.596 65.248L546.692 104.032H582.66ZM619.035 50.4H628.251V140H619.035V50.4Z" fill="white"/>
<g filter="url(#filter0_ii_140_3406)">
<path d="M207.888 66.3079C209.873 59.5014 219.076 58.4507 222.545 64.6345L269.182 147.778C269.835 148.943 270.77 149.926 271.9 150.637L287.161 160.233C287.229 160.276 287.303 160.308 287.381 160.329V160.329C288.289 160.573 288.113 161.91 287.173 161.91H255.623H190.667C185.334 161.91 181.494 156.789 182.987 151.669L207.888 66.3079Z" fill="url(#paint0_linear_140_3406)"/>
<path d="M230.951 17.9674C232.879 11.2008 241.974 10.0392 245.541 16.104L269.261 56.4381L288.445 89.4566C288.849 90.1512 289.355 90.781 289.946 91.3249L303.071 103.401C303.67 103.952 304.35 104.409 305.087 104.755L312.103 108.05C313.167 108.55 314.328 108.809 315.504 108.809H318.673C321.459 108.809 324.045 110.259 325.498 112.636L345.558 145.447C348.817 150.778 344.981 157.62 338.732 157.62H298.21C296.609 157.62 295.045 157.139 293.72 156.241L277.797 145.44C276.789 144.756 275.95 143.851 275.345 142.793L223.954 53.0142C223.726 52.6161 223.303 52.3705 222.844 52.3705V52.3705C221.995 52.3705 221.381 51.5579 221.614 50.741L230.951 17.9674Z" fill="url(#paint1_linear_140_3406)"/>
<path d="M284.071 45.7607C285.093 39.0215 294.136 37.5178 297.284 43.5636L329.137 104.741L316.348 103.724L307.822 100.165L294.119 87.9622L279.808 63.8616L284.071 45.7607V45.7607Z" fill="url(#paint2_linear_140_3406)"/>
</g>
<defs>
<filter id="filter0_ii_140_3406" x="182.662" y="12.1575" width="164.083" height="153.752" filterUnits="userSpaceOnUse" color-interpolation-filters="sRGB">
<feFlood flood-opacity="0" result="BackgroundImageFix"/>
<feBlend mode="normal" in="SourceGraphic" in2="BackgroundImageFix" result="shape"/>
<feColorMatrix in="SourceAlpha" type="matrix" values="0 0 0 0 0 0 0 0 0 0 0 0 0 0 0 0 0 0 127 0" result="hardAlpha"/>
<feOffset dy="4"/>
<feGaussianBlur stdDeviation="2"/>
<feComposite in2="hardAlpha" operator="arithmetic" k2="-1" k3="1"/>
<feColorMatrix type="matrix" values="0 0 0 0 0 0 0 0 0 0 0 0 0 0 0 0 0 0 0.25 0"/>
<feBlend mode="normal" in2="shape" result="effect1_innerShadow_140_3406"/>
<feColorMatrix in="SourceAlpha" type="matrix" values="0 0 0 0 0 0 0 0 0 0 0 0 0 0 0 0 0 0 127 0" result="hardAlpha"/>
<feOffset dy="4"/>
<feGaussianBlur stdDeviation="2"/>
<feComposite in2="hardAlpha" operator="arithmetic" k2="-1" k3="1"/>
<feColorMatrix type="matrix" values="0 0 0 0 0 0 0 0 0 0 0 0 0 0 0 0 0 0 0.25 0"/>
<feBlend mode="normal" in2="effect1_innerShadow_140_3406" result="effect2_innerShadow_140_3406"/>
</filter>
<linearGradient id="paint0_linear_140_3406" x1="233.364" y1="67.6619" x2="233.995" y2="160.03" gradientUnits="userSpaceOnUse">
<stop offset="0.0688547" stop-color="#001B47"/>
<stop offset="1" stop-color="#11E4F5"/>
</linearGradient>
<linearGradient id="paint1_linear_140_3406" x1="283.264" y1="27.188" x2="284.302" y2="155.017" gradientUnits="userSpaceOnUse">
<stop offset="0.0688547" stop-color="#001B47"/>
<stop offset="1" stop-color="#11E4F5"/>
</linearGradient>
<linearGradient id="paint2_linear_140_3406" x1="303.047" y1="38.2629" x2="303.768" y2="103.411" gradientUnits="userSpaceOnUse">
<stop offset="0.0688547" stop-color="#001B47"/>
<stop offset="1" stop-color="#11E4F5"/>
</linearGradient>
</defs>
</svg>
