<svg width="20" height="18" viewBox="0 0 20 18" fill="none" xmlns="http://www.w3.org/2000/svg">
<g clip-path="url(#clip0_148_925)">
<path d="M17.0605 2.54883C17.1517 2.5957 17.2266 2.66309 17.2852 2.75098C17.3438 2.83887 17.373 2.93262 17.373 3.03223C17.373 3.0791 17.3665 3.12305 17.3535 3.16406C17.3405 3.20508 17.3242 3.24609 17.3047 3.28711L10.4004 15.7236C10.3418 15.835 10.2507 15.917 10.127 15.9697L8.4375 16.7344C8.22917 16.8281 8.00456 16.875 7.76367 16.875H7.67578C7.64974 16.875 7.61719 16.8721 7.57812 16.8662L7.11914 17.6924C7.06706 17.7861 6.99219 17.8594 6.89453 17.9121C6.79688 17.9648 6.6862 17.9941 6.5625 18C6.39323 18 6.24674 17.9443 6.12305 17.833C5.99935 17.7217 5.9375 17.5898 5.9375 17.4375C5.9375 17.3672 5.96029 17.2793 6.00586 17.1738C6.05143 17.0684 6.10352 16.96 6.16211 16.8486C6.2207 16.7373 6.28581 16.6289 6.35742 16.5234C6.42904 16.418 6.47786 16.3359 6.50391 16.2773C6.33464 16.043 6.25 15.7881 6.25 15.5127V14.0625C6.25 13.9687 6.27279 13.8838 6.31836 13.8076L11.9434 3.68262L11.3086 3.40137L8.99414 7.56738C8.94206 7.66113 8.86719 7.73438 8.76953 7.78711C8.67188 7.83984 8.5612 7.86914 8.4375 7.875C8.26823 7.875 8.12174 7.81934 7.99805 7.70801C7.87435 7.59668 7.8125 7.46484 7.8125 7.3125C7.8125 7.23633 7.83529 7.15137 7.88086 7.05762L10.2148 2.85645C10.319 2.66895 10.459 2.52246 10.6348 2.41699C10.8105 2.31152 11.0156 2.25586 11.25 2.25C11.4779 2.25 11.6927 2.2998 11.8945 2.39941C12.0964 2.49902 12.2982 2.59277 12.5 2.68066L13.1934 1.43262C13.2454 1.33301 13.3203 1.25684 13.418 1.2041C13.5156 1.15137 13.6263 1.125 13.75 1.125C13.8346 1.125 13.9062 1.13672 13.9648 1.16016C14.043 1.01953 14.1178 0.881836 14.1895 0.74707C14.2611 0.612305 14.3457 0.486328 14.4434 0.369141C14.541 0.251953 14.6582 0.164062 14.7949 0.105469C14.9316 0.046875 15.1042 0.0117188 15.3125 0C15.5208 0 15.7194 0.0439453 15.9082 0.131836L16.8262 0.544922C17.0345 0.638672 17.1973 0.761719 17.3145 0.914062C17.4316 1.06641 17.4935 1.25391 17.5 1.47656C17.5 1.67578 17.4512 1.86035 17.3535 2.03027C17.2559 2.2002 17.1582 2.37305 17.0605 2.54883ZM15.0879 1.66113L15.9375 2.03906L16.2207 1.5293L15.3711 1.15137L15.0879 1.66113ZM15.9082 3.28711L14.0332 2.44336L7.5 14.1943V15.5127C7.5 15.5771 7.52604 15.6328 7.57812 15.6797C7.63021 15.7266 7.69206 15.75 7.76367 15.75C7.78971 15.75 7.8418 15.7354 7.91992 15.7061C7.99805 15.6768 8.09245 15.6387 8.20312 15.5918C8.3138 15.5449 8.42773 15.4951 8.54492 15.4424C8.66211 15.3896 8.7793 15.334 8.89648 15.2754C9.01367 15.2168 9.11133 15.1699 9.18945 15.1348C9.26758 15.0996 9.32943 15.0703 9.375 15.0469L15.9082 3.28711ZM17.5 6.75C17.8451 6.75 18.1673 6.80859 18.4668 6.92578C18.7663 7.04297 19.0332 7.2041 19.2676 7.40918C19.502 7.61426 19.681 7.85156 19.8047 8.12109C19.9284 8.39062 19.9935 8.68359 20 9C20 9.31055 19.9349 9.60059 19.8047 9.87012C19.6745 10.1396 19.4954 10.3799 19.2676 10.5908C19.0397 10.8018 18.776 10.9629 18.4766 11.0742C18.1771 11.1855 17.8516 11.2441 17.5 11.25H14.6875L15.3125 10.125H17.5C17.6758 10.125 17.8385 10.0957 17.9883 10.0371C18.138 9.97852 18.2682 9.89941 18.3789 9.7998C18.4896 9.7002 18.5807 9.58008 18.6523 9.43945C18.724 9.29883 18.7565 9.15234 18.75 9C18.75 8.8418 18.7174 8.69531 18.6523 8.56055C18.5872 8.42578 18.4993 8.30859 18.3887 8.20898C18.278 8.10938 18.1445 8.02734 17.9883 7.96289C17.832 7.89844 17.6693 7.86914 17.5 7.875C17.3307 7.875 17.1842 7.81934 17.0605 7.70801C16.9368 7.59668 16.875 7.46484 16.875 7.3125C16.875 7.16016 16.9368 7.02832 17.0605 6.91699C17.1842 6.80566 17.3307 6.75 17.5 6.75ZM1.25 14.0625C1.25 14.4492 1.33138 14.8125 1.49414 15.1523C1.6569 15.4922 1.87826 15.791 2.1582 16.0488C2.43815 16.3066 2.77018 16.5088 3.1543 16.6553C3.53841 16.8018 3.94531 16.875 4.375 16.875H4.80469C4.77214 16.9629 4.74609 17.0537 4.72656 17.1475C4.70703 17.2412 4.69401 17.3379 4.6875 17.4375C4.6875 17.5371 4.69727 17.6338 4.7168 17.7275C4.73633 17.8213 4.76562 17.9121 4.80469 18H4.375C3.76953 18 3.20312 17.8975 2.67578 17.6924C2.14844 17.4873 1.6862 17.2061 1.28906 16.8486C0.891927 16.4912 0.579427 16.0752 0.351562 15.6006C0.123698 15.126 0.00651042 14.6133 0 14.0625C0 13.5176 0.113932 13.0078 0.341797 12.5332C0.569661 12.0586 0.882161 11.6426 1.2793 11.2852C1.67643 10.9277 2.13867 10.6465 2.66602 10.4414C3.19336 10.2363 3.76302 10.1309 4.375 10.125H6.5625L5.9375 11.25H4.375C3.94531 11.25 3.54167 11.3232 3.16406 11.4697C2.78646 11.6162 2.45443 11.8184 2.16797 12.0762C1.88151 12.334 1.6569 12.6328 1.49414 12.9727C1.33138 13.3125 1.25 13.6758 1.25 14.0625Z" fill="#525252"/>
</g>
<defs>
<clipPath id="clip0_148_925">
<rect width="20" height="18" fill="white"/>
</clipPath>
</defs>
</svg>