<svg width="25" height="25" viewBox="0 0 25 25" fill="none" xmlns="http://www.w3.org/2000/svg">
<path d="M11.458 4.04645H4.16634C3.61381 4.04645 3.0839 4.25961 2.6932 4.63903C2.3025 5.01846 2.08301 5.53307 2.08301 6.06966V20.2321C2.08301 20.7687 2.3025 21.2833 2.6932 21.6628C3.0839 22.0422 3.61381 22.2553 4.16634 22.2553H18.7497C19.3022 22.2553 19.8321 22.0422 20.2228 21.6628C20.6135 21.2833 20.833 20.7687 20.833 20.2321V13.1509" stroke="#525252" stroke-width="2" stroke-linecap="round" stroke-linejoin="round"/>
<path d="M19.2705 2.52904C19.6849 2.1266 20.247 1.90051 20.833 1.90051C21.4191 1.90051 21.9811 2.1266 22.3955 2.52904C22.8099 2.93149 23.0427 3.47731 23.0427 4.04645C23.0427 4.61559 22.8099 5.16142 22.3955 5.56386L12.4997 15.1741L8.33301 16.1857L9.37467 12.1393L19.2705 2.52904Z" stroke="#525252" stroke-width="2" stroke-linecap="round" stroke-linejoin="round"/>
</svg>
