<svg width="21" height="21" viewBox="0 0 21 21" fill="none" xmlns="http://www.w3.org/2000/svg">
<path d="M18.8002 9.57093V14.6504C18.8002 18.0367 17.9712 18.8833 14.6555 18.8833H6.3663C3.0506 18.8833 2.22168 18.0367 2.22168 14.6504V6.18462C2.22168 2.7983 3.0506 1.95172 6.3663 1.95172H7.60969C8.85307 1.95172 9.12662 2.32422 9.5991 2.96762L10.8425 4.66077C11.1575 5.08406 11.3398 5.33804 12.1688 5.33804H14.6555C17.9712 5.33804 18.8002 6.18462 18.8002 9.57093Z" stroke="#5C5967" stroke-miterlimit="10"/>
<path d="M7.61035 1.95172H15.0707C16.7285 1.95172 17.5574 2.7983 17.5574 4.49146V5.65974" stroke="#5C5967" stroke-miterlimit="10" stroke-linecap="round" stroke-linejoin="round"/>
<path d="M12.5831 12.9572H8.43848" stroke="#5C5967" stroke-miterlimit="10" stroke-linecap="round" stroke-linejoin="round"/>
</svg>
