<svg width="24" height="24" viewBox="0 0 24 24" fill="none" xmlns="http://www.w3.org/2000/svg">
<path d="M1 11.6875C1 7.44513 1 5.32337 2.3185 4.006C3.63587 2.6875 5.75763 2.6875 10 2.6875H14.5C18.7424 2.6875 20.8641 2.6875 22.1815 4.006C23.5 5.32337 23.5 7.44513 23.5 11.6875V13.9375C23.5 18.1799 23.5 20.3016 22.1815 21.619C20.8641 22.9375 18.7424 22.9375 14.5 22.9375H10C5.75763 22.9375 3.63587 22.9375 2.3185 21.619C1 20.3016 1 18.1799 1 13.9375V11.6875Z" stroke="#36454F" stroke-width="0.9375"/>
<path d="M6.625 2.6875V1M17.875 2.6875V1M1.5625 8.3125H22.9375" stroke="#36454F" stroke-width="0.9375" stroke-linecap="round"/>
<path d="M19 17.3125C19 17.6109 18.8815 17.897 18.6705 18.108C18.4595 18.319 18.1734 18.4375 17.875 18.4375C17.5766 18.4375 17.2905 18.319 17.0795 18.108C16.8685 17.897 16.75 17.6109 16.75 17.3125C16.75 17.0141 16.8685 16.728 17.0795 16.517C17.2905 16.306 17.5766 16.1875 17.875 16.1875C18.1734 16.1875 18.4595 16.306 18.6705 16.517C18.8815 16.728 19 17.0141 19 17.3125ZM19 12.8125C19 13.1109 18.8815 13.397 18.6705 13.608C18.4595 13.819 18.1734 13.9375 17.875 13.9375C17.5766 13.9375 17.2905 13.819 17.0795 13.608C16.8685 13.397 16.75 13.1109 16.75 12.8125C16.75 12.5141 16.8685 12.228 17.0795 12.017C17.2905 11.806 17.5766 11.6875 17.875 11.6875C18.1734 11.6875 18.4595 11.806 18.6705 12.017C18.8815 12.228 19 12.5141 19 12.8125ZM13.375 17.3125C13.375 17.6109 13.2565 17.897 13.0455 18.108C12.8345 18.319 12.5484 18.4375 12.25 18.4375C11.9516 18.4375 11.6655 18.319 11.4545 18.108C11.2435 17.897 11.125 17.6109 11.125 17.3125C11.125 17.0141 11.2435 16.728 11.4545 16.517C11.6655 16.306 11.9516 16.1875 12.25 16.1875C12.5484 16.1875 12.8345 16.306 13.0455 16.517C13.2565 16.728 13.375 17.0141 13.375 17.3125ZM13.375 12.8125C13.375 13.1109 13.2565 13.397 13.0455 13.608C12.8345 13.819 12.5484 13.9375 12.25 13.9375C11.9516 13.9375 11.6655 13.819 11.4545 13.608C11.2435 13.397 11.125 13.1109 11.125 12.8125C11.125 12.5141 11.2435 12.228 11.4545 12.017C11.6655 11.806 11.9516 11.6875 12.25 11.6875C12.5484 11.6875 12.8345 11.806 13.0455 12.017C13.2565 12.228 13.375 12.5141 13.375 12.8125ZM7.75 17.3125C7.75 17.6109 7.63147 17.897 7.42049 18.108C7.20952 18.319 6.92337 18.4375 6.625 18.4375C6.32663 18.4375 6.04048 18.319 5.82951 18.108C5.61853 17.897 5.5 17.6109 5.5 17.3125C5.5 17.0141 5.61853 16.728 5.82951 16.517C6.04048 16.306 6.32663 16.1875 6.625 16.1875C6.92337 16.1875 7.20952 16.306 7.42049 16.517C7.63147 16.728 7.75 17.0141 7.75 17.3125ZM7.75 12.8125C7.75 13.1109 7.63147 13.397 7.42049 13.608C7.20952 13.819 6.92337 13.9375 6.625 13.9375C6.32663 13.9375 6.04048 13.819 5.82951 13.608C5.61853 13.397 5.5 13.1109 5.5 12.8125C5.5 12.5141 5.61853 12.228 5.82951 12.017C6.04048 11.806 6.32663 11.6875 6.625 11.6875C6.92337 11.6875 7.20952 11.806 7.42049 12.017C7.63147 12.228 7.75 12.5141 7.75 12.8125Z" fill="#36454F"/>
</svg>
