<svg width="12" height="19" viewBox="0 0 12 19" fill="none" xmlns="http://www.w3.org/2000/svg">
<path fill-rule="evenodd" clip-rule="evenodd" d="M0.734304 1.91836C0.734304 1.32026 1.2049 0.835404 1.78541 0.835404C2.36592 0.835404 2.83651 1.32026 2.83651 1.91836L2.83651 16.9586C2.83651 17.5567 2.36592 18.0416 1.78541 18.0416C1.2049 18.0416 0.734304 17.5567 0.734304 16.9586L0.734304 1.91836ZM6.04399 0.836143C5.46348 0.836143 4.99289 1.321 4.99289 1.9191V12.5032C4.99289 13.1013 5.46348 13.5861 6.04399 13.5861C6.6245 13.5861 7.0951 13.1013 7.0951 12.5032L7.0951 1.9191C7.0951 1.321 6.6245 0.836143 6.04399 0.836143ZM10.3022 0.836577C9.72165 0.836577 9.25105 1.32143 9.25105 1.91953L9.25105 7.8418C9.25105 8.4399 9.72165 8.92475 10.3022 8.92475C10.8827 8.92475 11.3533 8.4399 11.3533 7.8418L11.3533 1.91953C11.3533 1.32143 10.8827 0.836577 10.3022 0.836577Z" fill="#2E8B57"/>
</svg>
