<svg width="14" height="16" viewBox="0 0 14 16" fill="none" xmlns="http://www.w3.org/2000/svg">
<path d="M6 9.75V11.25C4.80653 11.25 3.66193 11.7241 2.81802 12.568C1.97411 13.4119 1.5 14.5565 1.5 15.75H0C0 14.1587 0.632141 12.6326 1.75736 11.5074C2.88258 10.3821 4.4087 9.75 6 9.75ZM6 9C3.51375 9 1.5 6.98625 1.5 4.5C1.5 2.01375 3.51375 0 6 0C8.48625 0 10.5 2.01375 10.5 4.5C10.5 6.98625 8.48625 9 6 9ZM6 7.5C7.6575 7.5 9 6.1575 9 4.5C9 2.8425 7.6575 1.5 6 1.5C4.3425 1.5 3 2.8425 3 4.5C3 6.1575 4.3425 7.5 6 7.5ZM12.75 12H13.5V15.75H7.5V12H8.25V11.25C8.25 10.6533 8.48705 10.081 8.90901 9.65901C9.33097 9.23705 9.90326 9 10.5 9C11.0967 9 11.669 9.23705 12.091 9.65901C12.5129 10.081 12.75 10.6533 12.75 11.25V12ZM11.25 12V11.25C11.25 11.0511 11.171 10.8603 11.0303 10.7197C10.8897 10.579 10.6989 10.5 10.5 10.5C10.3011 10.5 10.1103 10.579 9.96967 10.7197C9.82902 10.8603 9.75 11.0511 9.75 11.25V12H11.25Z" fill="white"/>
</svg>
