<svg width="16" height="16" viewBox="0 0 16 16" fill="none" xmlns="http://www.w3.org/2000/svg">
<path fill-rule="evenodd" clip-rule="evenodd" d="M2.16 0H2.1C1.8252 0 1.5888 8.9407e-09 1.38 0.0492C1.05676 0.126438 0.76122 0.291656 0.526117 0.526547C0.291013 0.761439 0.125529 1.05683 0.048 1.38C-4.47035e-08 1.5888 0 1.824 0 2.1V5.1C0 5.3748 8.9407e-09 5.6112 0.0492 5.82C0.126438 6.14324 0.291656 6.43878 0.526547 6.67388C0.761439 6.90899 1.05683 7.07447 1.38 7.152C1.5888 7.2 1.824 7.2 2.1 7.2H5.1C5.3748 7.2 5.6112 7.2 5.82 7.1508C6.14324 7.07356 6.43878 6.90834 6.67388 6.67345C6.90899 6.43856 7.07447 6.14317 7.152 5.82C7.2 5.6112 7.2 5.376 7.2 5.1V2.1C7.2 1.8252 7.2 1.5888 7.1508 1.38C7.07356 1.05676 6.90834 0.76122 6.67345 0.526117C6.43856 0.291013 6.14317 0.125529 5.82 0.048C5.6112 -4.47035e-08 5.376 0 5.1 0H5.04H2.16ZM1.6596 1.2168C1.7112 1.2048 1.7916 1.2 2.16 1.2H5.04C5.4096 1.2 5.4888 1.2036 5.5404 1.2168C5.6482 1.24258 5.74674 1.29771 5.82512 1.37608C5.90349 1.45445 5.95862 1.553 5.9844 1.6608C5.9964 1.7112 6 1.7904 6 2.16V5.04C6 5.4096 5.9964 5.4888 5.9832 5.5404C5.95742 5.6482 5.90229 5.74674 5.82392 5.82512C5.74555 5.90349 5.647 5.95862 5.5392 5.9844C5.49 5.9952 5.4108 6 5.04 6H2.16C1.7904 6 1.7112 5.9964 1.6596 5.9832C1.5518 5.95742 1.45326 5.90229 1.37488 5.82392C1.29651 5.74555 1.24138 5.647 1.2156 5.5392C1.2048 5.49 1.2 5.4108 1.2 5.04V2.16C1.2 1.7904 1.2036 1.7112 1.2168 1.6596C1.24258 1.5518 1.29771 1.45326 1.37608 1.37488C1.45445 1.29651 1.553 1.24138 1.6608 1.2156M10.56 0H10.5C10.2252 0 9.9888 8.9407e-09 9.78 0.0492C9.45676 0.126438 9.16122 0.291656 8.92612 0.526547C8.69101 0.761439 8.52553 1.05683 8.448 1.38C8.4 1.5888 8.4 1.824 8.4 2.1V5.1C8.4 5.3748 8.4 5.6112 8.4492 5.82C8.52644 6.14324 8.69166 6.43878 8.92655 6.67388C9.16144 6.90899 9.45683 7.07447 9.78 7.152C9.9888 7.2 10.224 7.2 10.5 7.2H13.5C13.7748 7.2 14.0112 7.2 14.22 7.1508C14.5432 7.07356 14.8388 6.90834 15.0739 6.67345C15.309 6.43856 15.4745 6.14317 15.552 5.82C15.6 5.6112 15.6 5.376 15.6 5.1V2.1C15.6 1.8252 15.6 1.5888 15.5508 1.38C15.4736 1.05676 15.3083 0.76122 15.0735 0.526117C14.8386 0.291013 14.5432 0.125529 14.22 0.048C14.0112 -4.47035e-08 13.776 0 13.5 0H13.44H10.56ZM10.0596 1.2168C10.1112 1.2048 10.1916 1.2 10.56 1.2H13.44C13.8096 1.2 13.8888 1.2036 13.9404 1.2168C14.0482 1.24258 14.1467 1.29771 14.2251 1.37608C14.3035 1.45445 14.3586 1.553 14.3844 1.6608C14.3964 1.7112 14.4 1.7904 14.4 2.16V5.04C14.4 5.4096 14.3952 5.4888 14.3832 5.5404C14.3574 5.6482 14.3023 5.74674 14.2239 5.82512C14.1455 5.90349 14.047 5.95862 13.9392 5.9844C13.8888 5.9964 13.8096 6 13.44 6H10.56C10.1904 6 10.1112 5.9964 10.0596 5.9832C9.9518 5.95742 9.85326 5.90229 9.77488 5.82392C9.69651 5.74555 9.64138 5.647 9.6156 5.5392C9.6048 5.49 9.6 5.4108 9.6 5.04V2.16C9.6 1.7904 9.6036 1.7112 9.6168 1.6596C9.64258 1.5518 9.69771 1.45326 9.77608 1.37488C9.85445 1.29651 9.953 1.24138 10.0608 1.2156M2.1 8.4H5.1C5.3748 8.4 5.6112 8.4 5.82 8.4492C6.14324 8.52644 6.43878 8.69166 6.67388 8.92655C6.90899 9.16144 7.07447 9.45683 7.152 9.78C7.2 9.9888 7.2 10.224 7.2 10.5V13.5C7.2 13.7748 7.2 14.0112 7.1508 14.22C7.07356 14.5432 6.90834 14.8388 6.67345 15.0739C6.43856 15.309 6.14317 15.4745 5.82 15.552C5.6112 15.6 5.376 15.6 5.1 15.6H2.1C1.8252 15.6 1.5888 15.6 1.38 15.5508C1.05676 15.4736 0.76122 15.3083 0.526117 15.0735C0.291013 14.8386 0.125529 14.5432 0.048 14.22C-4.47035e-08 14.0112 0 13.776 0 13.5V10.5C0 10.2252 8.9407e-09 9.9888 0.0492 9.78C0.126438 9.45676 0.291656 9.16122 0.526547 8.92612C0.761439 8.69101 1.05683 8.52553 1.38 8.448C1.5888 8.4 1.824 8.4 2.1 8.4ZM2.16 9.6C1.7904 9.6 1.7112 9.6036 1.6596 9.6168C1.5518 9.64258 1.45326 9.69771 1.37488 9.77608C1.29651 9.85445 1.24138 9.953 1.2156 10.0608C1.2048 10.11 1.2 10.1892 1.2 10.56V13.44C1.2 13.8096 1.2036 13.8888 1.2168 13.9404C1.24258 14.0482 1.29771 14.1467 1.37608 14.2251C1.45445 14.3035 1.553 14.3586 1.6608 14.3844C1.7112 14.3964 1.7904 14.4 2.16 14.4H5.04C5.4096 14.4 5.4888 14.3952 5.5404 14.3832C5.6482 14.3574 5.74674 14.3023 5.82512 14.2239C5.90349 14.1455 5.95862 14.047 5.9844 13.9392C5.9964 13.8888 6 13.8096 6 13.44V10.56C6 10.1904 5.9964 10.1112 5.9832 10.0596C5.95742 9.9518 5.90229 9.85326 5.82392 9.77488C5.74555 9.69651 5.647 9.64138 5.5392 9.6156C5.49 9.6048 5.4108 9.6 5.04 9.6H2.16ZM10.56 8.4H10.5C10.2252 8.4 9.9888 8.4 9.78 8.4492C9.45676 8.52644 9.16122 8.69166 8.92612 8.92655C8.69101 9.16144 8.52553 9.45683 8.448 9.78C8.4 9.9888 8.4 10.224 8.4 10.5V13.5C8.4 13.7748 8.4 14.0112 8.4492 14.22C8.52644 14.5432 8.69166 14.8388 8.92655 15.0739C9.16144 15.309 9.45683 15.4745 9.78 15.552C9.9888 15.6012 10.2252 15.6012 10.5 15.6012H13.5C13.7748 15.6012 14.0112 15.6012 14.22 15.552C14.543 15.4746 14.8383 15.3093 15.0732 15.0744C15.3081 14.8395 15.4734 14.5442 15.5508 14.2212C15.6 14.0124 15.6 13.776 15.6 13.5012V10.5C15.6 10.2252 15.6 9.9888 15.5508 9.78C15.4736 9.45676 15.3083 9.16122 15.0735 8.92612C14.8386 8.69101 14.5432 8.52553 14.22 8.448C14.0112 8.4 13.776 8.4 13.5 8.4H13.44H10.56ZM10.0596 9.6168C10.1112 9.6048 10.1916 9.6 10.56 9.6H13.44C13.8096 9.6 13.8888 9.6036 13.9404 9.6168C14.0482 9.64258 14.1467 9.69771 14.2251 9.77608C14.3035 9.85445 14.3586 9.953 14.3844 10.0608C14.3964 10.1112 14.4 10.1904 14.4 10.56V13.44C14.4 13.8096 14.3952 13.8888 14.3832 13.9404C14.3574 14.0482 14.3023 14.1467 14.2239 14.2251C14.1455 14.3035 14.047 14.3586 13.9392 14.3844C13.8888 14.3964 13.8096 14.4 13.44 14.4H10.56C10.1904 14.4 10.1112 14.3952 10.0596 14.3832C9.9518 14.3574 9.85326 14.3023 9.77488 14.2239C9.69651 14.1455 9.64138 14.047 9.6156 13.9392C9.6048 13.89 9.6 13.8108 9.6 13.44V10.56C9.6 10.1904 9.6036 10.1112 9.6168 10.0596C9.64258 9.9518 9.69771 9.85326 9.77608 9.77488C9.85445 9.69651 9.953 9.64138 10.0608 9.6156" fill="white"/>
</svg>
