<svg width="20" height="20" viewBox="0 0 20 20" fill="none" xmlns="http://www.w3.org/2000/svg">
<path d="M16.6 11C17.9255 11 19 10.1046 19 9C19 7.89543 17.9255 7 16.6 7C15.2745 7 14.2 7.89543 14.2 9C14.2 10.1046 15.2745 11 16.6 11Z" stroke="white" stroke-width="0.833333"/>
<path d="M16.6 19C17.9255 19 19 18.1046 19 17C19 15.8954 17.9255 15 16.6 15C15.2745 15 14.2 15.8954 14.2 17C14.2 18.1046 15.2745 19 16.6 19Z" stroke="white" stroke-width="0.833333"/>
<path d="M3.4 1C2.07452 1 1 1.89543 1 3C1 4.10457 2.07452 5 3.4 5C4.72548 5 5.8 4.10457 5.8 3C5.8 1.89543 4.72548 1 3.4 1Z" stroke="white" stroke-width="0.833333"/>
<path d="M3.40039 6V13C3.40039 14.886 3.40039 15.828 4.10359 16.414C4.80679 17 5.93719 17 8.20039 17H14.2004" stroke="white" stroke-width="0.833333"/>
<path d="M3.40039 5C3.40039 6.886 3.40039 7.828 4.10359 8.414C4.80679 9 5.93719 9 8.20039 9H14.2004" stroke="white" stroke-width="0.833333"/>
</svg>
