<svg width="18" height="18" viewBox="0 0 18 18" fill="none" xmlns="http://www.w3.org/2000/svg">
<path d="M4.31485 1.33701C4.43397 1.1863 4.49882 0.986964 4.49574 0.780998C4.49266 0.575033 4.42188 0.378519 4.29833 0.232857C4.17477 0.0871951 4.00808 0.00375788 3.83337 0.000123861C3.65866 -0.00351015 3.48957 0.0729427 3.36173 0.213376L1.59037 2.30164L1.16776 1.80342C1.03992 1.66299 0.870833 1.58654 0.696124 1.59017C0.521414 1.5938 0.354722 1.67724 0.231164 1.8229C0.107607 1.96857 0.0368313 2.16508 0.0337488 2.37105C0.0306662 2.57701 0.0955172 2.77635 0.214639 2.92706L1.11381 3.98709C1.24025 4.13597 1.41166 4.21959 1.59037 4.21959C1.76908 4.21959 1.94048 4.13597 2.06693 3.98709L4.31485 1.33701ZM17.3258 15.358H6.98538L6.89367 15.3655C6.7244 15.3929 6.57028 15.4951 6.46245 15.6514C6.35463 15.8076 6.30114 16.0063 6.31278 16.2073C6.32443 16.4082 6.40035 16.5965 6.5252 16.734C6.65005 16.8715 6.81452 16.948 6.98538 16.9481H17.3258L17.4175 16.9407C17.5868 16.9132 17.7409 16.811 17.8488 16.6548C17.9566 16.4985 18.0101 16.2998 17.9984 16.0989C17.9868 15.8979 17.9109 15.7097 17.786 15.5721C17.6612 15.4346 17.4967 15.3581 17.3258 15.358ZM17.3258 8.46042H6.98538L6.89367 8.46784C6.7244 8.49529 6.57028 8.59747 6.46245 8.75373C6.35463 8.90999 6.30114 9.10867 6.31278 9.30963C6.32443 9.51059 6.40035 9.69885 6.5252 9.83637C6.65005 9.97388 6.81452 10.0504 6.98538 10.0505H17.3258L17.4175 10.043C17.5868 10.0156 17.7409 9.91341 17.8488 9.75715C17.9566 9.6009 18.0101 9.40222 17.9984 9.20125C17.9868 9.00029 17.9109 8.81203 17.786 8.67452C17.6612 8.537 17.4967 8.46048 17.3258 8.46042ZM17.3258 1.57022H6.98538L6.89367 1.57764C6.7244 1.60509 6.57028 1.70727 6.46245 1.86353C6.35463 2.01978 6.30114 2.21847 6.31278 2.41943C6.32443 2.62039 6.40035 2.80865 6.5252 2.94617C6.65005 3.08368 6.81452 3.1602 6.98538 3.16026H17.3258L17.4175 3.15284C17.5868 3.12539 17.7409 3.02321 17.8488 2.86695C17.9566 2.71069 18.0101 2.51201 17.9984 2.31105C17.9868 2.11009 17.9109 1.92183 17.786 1.78431C17.6612 1.6468 17.4967 1.57028 17.3258 1.57022ZM4.31485 15.1174C4.38111 15.0446 4.43425 14.9569 4.47111 14.8593C4.50797 14.7618 4.52779 14.6565 4.52938 14.5498C4.53098 14.443 4.51433 14.337 4.48041 14.238C4.44649 14.139 4.39601 14.0491 4.33197 13.9736C4.26793 13.8981 4.19165 13.8386 4.10768 13.7986C4.02371 13.7586 3.93376 13.739 3.84322 13.7409C3.75267 13.7428 3.66337 13.7661 3.58064 13.8096C3.49792 13.853 3.42347 13.9157 3.36173 13.9938L1.59037 16.082L1.16776 15.5838C1.03992 15.4434 0.870833 15.3669 0.696124 15.3706C0.521414 15.3742 0.354722 15.4576 0.231164 15.6033C0.107607 15.749 0.0368313 15.9455 0.0337488 16.1515C0.0306662 16.3574 0.0955172 16.5568 0.214639 16.7075L1.11381 17.7675C1.24025 17.9164 1.41166 18 1.59037 18C1.76908 18 1.94048 17.9164 2.06693 17.7675L4.31485 15.1174ZM4.31485 7.10358C4.44114 7.25265 4.51207 7.45471 4.51207 7.66539C4.51207 7.87608 4.44114 8.07814 4.31485 8.22721L2.06693 10.8773C1.94048 11.0262 1.76908 11.1098 1.59037 11.1098C1.41166 11.1098 1.24025 11.0262 1.11381 10.8773L0.214639 9.81726C0.148382 9.74447 0.0952394 9.6567 0.0583807 9.55918C0.021522 9.46166 0.00170258 9.35638 0.000104953 9.24963C-0.00149268 9.14289 0.015164 9.03685 0.0490816 8.93786C0.0829991 8.83886 0.133483 8.74894 0.19752 8.67344C0.261558 8.59795 0.337838 8.53843 0.42181 8.49845C0.505782 8.45846 0.595725 8.43883 0.686274 8.44071C0.776823 8.44259 0.866122 8.46596 0.948845 8.50941C1.03157 8.55286 1.10602 8.61551 1.16776 8.69363L1.59037 9.19184L3.36173 7.10358C3.48818 6.9547 3.65958 6.87107 3.83829 6.87107C4.017 6.87107 4.1884 6.9547 4.31485 7.10358Z" fill="white"/>
</svg>
