<svg width="18" height="18" viewBox="0 0 18 18" fill="none" xmlns="http://www.w3.org/2000/svg">
<path d="M16.0245 13.2279C15.4613 12.6643 14.8032 12.2043 14.0805 11.8689C15.0997 11.0432 15.75 9.78324 15.75 8.37028C15.75 5.87736 13.671 3.83217 11.178 3.87041C8.72325 3.90866 6.74551 5.90885 6.74551 8.37028C6.74551 9.78324 7.39801 11.0432 8.415 11.8689C7.6921 12.204 7.03401 12.6641 6.47102 13.2279C5.24252 14.4586 4.54503 16.0831 4.50003 17.8155C4.49943 17.8395 4.50364 17.8634 4.51242 17.8858C4.52119 17.9081 4.53436 17.9285 4.55113 17.9457C4.56791 17.9629 4.58795 17.9766 4.61009 17.9859C4.63223 17.9952 4.65601 18 4.68003 18H5.94002C6.03677 18 6.11777 17.9235 6.12002 17.8268C6.16277 16.5218 6.69151 15.3001 7.62076 14.3731C8.09627 13.8951 8.66187 13.5161 9.28483 13.2581C9.90779 13.0001 10.5757 12.8683 11.25 12.8702C12.6202 12.8702 13.9095 13.4034 14.8792 14.3731C15.8062 15.3001 16.335 16.5218 16.38 17.8268C16.3822 17.9235 16.4632 18 16.56 18H17.8199C17.844 18 17.8677 17.9952 17.8899 17.9859C17.912 17.9766 17.9321 17.9629 17.9488 17.9457C17.9656 17.9285 17.9788 17.9081 17.9876 17.8858C17.9963 17.8634 18.0005 17.8395 17.9999 17.8155C17.9549 16.0831 17.2574 14.4586 16.0245 13.2279ZM11.25 11.2502C10.4805 11.2502 9.756 10.951 9.21375 10.4065C8.94162 10.1365 8.72666 9.81447 8.5817 9.45961C8.43674 9.10475 8.36474 8.72432 8.37 8.34103C8.37675 7.60306 8.6715 6.88983 9.18675 6.36109C9.72675 5.80761 10.449 5.49937 11.2207 5.49037C11.9835 5.48362 12.7237 5.78061 13.2682 6.31384C13.8262 6.86058 14.1322 7.59181 14.1322 8.37028C14.1322 9.13976 13.833 9.86199 13.2885 10.4065C13.0213 10.6749 12.7036 10.8877 12.3537 11.0325C12.0038 11.1773 11.6287 11.2513 11.25 11.2502ZM5.61377 8.96427C5.59352 8.76852 5.58227 8.57053 5.58227 8.37028C5.58227 8.01254 5.61602 7.6638 5.67902 7.32406C5.69477 7.24307 5.65202 7.15982 5.57777 7.12607C5.27177 6.98882 4.99053 6.79983 4.74753 6.56134C4.46119 6.28371 4.23588 5.94945 4.08595 5.57988C3.93603 5.21031 3.86479 4.81354 3.87678 4.4149C3.89703 3.69267 4.18728 3.00644 4.69353 2.48896C5.24927 1.91972 5.99627 1.60923 6.79051 1.61823C7.50826 1.62498 8.20125 1.90172 8.7255 2.39221C8.90325 2.5587 9.05625 2.7432 9.1845 2.94119C9.2295 3.01094 9.31725 3.04019 9.39375 3.01319C9.78975 2.87594 10.2082 2.7792 10.638 2.7342C10.764 2.7207 10.836 2.5857 10.7797 2.47321C10.0485 1.0265 8.5545 0.0275271 6.82651 0.000527919C4.33128 -0.037721 2.25229 2.00747 2.25229 4.49815C2.25229 5.9111 2.90254 7.17107 3.92178 7.99679C3.20629 8.32753 2.54704 8.78427 1.97554 9.35575C0.742552 10.5865 0.045056 12.2109 5.62631e-05 13.9456C-0.000544269 13.9696 0.00366777 13.9935 0.0124443 14.0159C0.0212208 14.0382 0.0343842 14.0586 0.0511588 14.0758C0.0679335 14.093 0.0879801 14.1067 0.110117 14.116C0.132254 14.1253 0.156034 14.1301 0.180055 14.1301H1.4423C1.53905 14.1301 1.62005 14.0536 1.6223 13.9569C1.66505 12.6519 2.19379 11.4302 3.12304 10.5032C3.78453 9.84174 4.59453 9.38275 5.47877 9.16001C5.56652 9.13751 5.62502 9.05426 5.61377 8.96427Z" fill="white"/>
</svg>
