<svg width="52" height="52" viewBox="0 0 52 52" fill="none" xmlns="http://www.w3.org/2000/svg">
<path fill-rule="evenodd" clip-rule="evenodd" d="M25.8334 5.16667C22.2187 5.166 18.667 6.11343 15.5329 7.91437C12.3988 9.71532 9.79181 12.3068 7.97224 15.4301C6.15266 18.5535 5.18411 22.0994 5.16325 25.7141C5.14239 29.3287 6.06996 32.8856 7.85336 36.0297C9.05877 34.4632 10.6083 33.1948 12.3822 32.3226C14.156 31.4505 16.1067 30.9979 18.0834 31H33.5834C35.56 30.9979 37.5107 31.4505 39.2846 32.3226C41.0584 33.1948 42.6079 34.4632 43.8134 36.0297C45.5968 32.8856 46.5243 29.3287 46.5035 25.7141C46.4826 22.0994 45.5141 18.5535 43.6945 15.4301C41.8749 12.3068 39.268 9.71532 36.1338 7.91437C32.9997 6.11343 29.4481 5.166 25.8334 5.16667ZM46.3528 41.5297C49.8068 37.0268 51.675 31.5083 51.6667 25.8333C51.6667 11.5656 40.1011 0 25.8334 0C11.5656 0 2.90709e-05 11.5656 2.90709e-05 25.8333C-0.00849964 31.5084 1.85979 37.0269 5.31395 41.5297L5.30103 41.5762L6.21811 42.6431C8.64098 45.4757 11.6493 47.7493 15.0356 49.3072C18.422 50.865 22.1059 51.67 25.8334 51.6667C31.0706 51.6763 36.1858 50.0854 40.4938 47.1071C42.3303 45.8382 43.9957 44.3378 45.4486 42.6431L46.3657 41.5762L46.3528 41.5297ZM25.8334 10.3333C23.7779 10.3333 21.8067 11.1498 20.3533 12.6033C18.8999 14.0567 18.0834 16.0279 18.0834 18.0833C18.0834 20.1388 18.8999 22.11 20.3533 23.5634C21.8067 25.0168 23.7779 25.8333 25.8334 25.8333C27.8888 25.8333 29.86 25.0168 31.3134 23.5634C32.7668 22.11 33.5834 20.1388 33.5834 18.0833C33.5834 16.0279 32.7668 14.0567 31.3134 12.6033C29.86 11.1498 27.8888 10.3333 25.8334 10.3333Z" fill="white"/>
</svg>
