<svg width="20" height="15" viewBox="0 0 20 15" fill="none" xmlns="http://www.w3.org/2000/svg">
<path d="M0.37793 12.5289C0.37793 13.7549 1.64275 14.6924 3.29675 14.6924H16.9179C18.5719 14.6924 19.8368 13.7549 19.8368 12.5289V6.75967H0.37793V12.5289ZM16.9179 1.71159H14.972V0.990441C14.972 0.557749 14.5829 0.269287 13.9991 0.269287C13.4153 0.269287 13.0262 0.557749 13.0262 0.990441V1.71159H7.18852V0.990441C7.18852 0.557749 6.79934 0.269287 6.21558 0.269287C5.63181 0.269287 5.24263 0.557749 5.24263 0.990441V1.71159H3.29675C1.64275 1.71159 0.37793 2.64909 0.37793 3.87506V5.31736H19.8368V3.87506C19.8368 2.64909 18.5719 1.71159 16.9179 1.71159Z" fill="#333333"/>
</svg>
