<svg width="24" height="20" viewBox="0 0 24 20" fill="none" xmlns="http://www.w3.org/2000/svg">
<path d="M11.9593 20C10.4149 20 8.96353 19.7373 7.6052 19.212C6.24686 18.6873 5.0653 17.975 4.0605 17.075C3.05571 16.175 2.26043 15.1167 1.67468 13.9C1.08817 12.6833 0.794922 11.3833 0.794922 10C0.794922 8.61667 1.08817 7.31667 1.67468 6.1C2.26043 4.88333 3.05571 3.825 4.0605 2.925C5.0653 2.025 6.24686 1.31233 7.6052 0.787C8.96353 0.262333 10.4149 0 11.9593 0C13.5037 0 14.9551 0.262333 16.3134 0.787C17.6717 1.31233 18.8533 2.025 19.8581 2.925C20.8629 3.825 21.6582 4.88333 22.2439 6.1C22.8304 7.31667 23.1237 8.61667 23.1237 10C23.1237 11.3833 22.8304 12.6833 22.2439 13.9C21.6582 15.1167 20.8629 16.175 19.8581 17.075C18.8533 17.975 17.6717 18.6873 16.3134 19.212C14.9551 19.7373 13.5037 20 11.9593 20ZM11.9593 18C14.4527 18 16.5646 17.225 18.2951 15.675C20.0256 14.125 20.8908 12.2333 20.8908 10C20.8908 8.93333 20.6675 7.90833 20.2209 6.925C19.7744 5.94167 19.1324 5.075 18.2951 4.325L11.9593 10V2C9.46593 2 7.354 2.775 5.62352 4.325C3.89304 5.875 3.0278 7.76667 3.0278 10C3.0278 12.2333 3.89304 14.125 5.62352 15.675C7.354 17.225 9.46593 18 11.9593 18Z" fill="#4BA665"/>
</svg>
