<svg width="32" height="32" viewBox="0 0 32 32" fill="none" xmlns="http://www.w3.org/2000/svg">
<path d="M17.5 17C17.5 17.2967 17.412 17.5867 17.2472 17.8334C17.0824 18.08 16.8481 18.2723 16.574 18.3858C16.2999 18.4994 15.9983 18.5291 15.7074 18.4712C15.4164 18.4133 15.1491 18.2704 14.9393 18.0607C14.7296 17.8509 14.5867 17.5836 14.5288 17.2926C14.4709 17.0017 14.5006 16.7001 14.6142 16.426C14.7277 16.1519 14.92 15.9176 15.1666 15.7528C15.4133 15.588 15.7033 15.5 16 15.5C16.3978 15.5 16.7794 15.658 17.0607 15.9393C17.342 16.2206 17.5 16.6022 17.5 17ZM16 10C16.2967 10 16.5867 9.91203 16.8334 9.74721C17.08 9.58238 17.2723 9.34812 17.3858 9.07403C17.4994 8.79994 17.5291 8.49834 17.4712 8.20737C17.4133 7.91639 17.2704 7.64912 17.0607 7.43934C16.8509 7.22956 16.5836 7.0867 16.2926 7.02882C16.0017 6.97094 15.7001 7.00065 15.426 7.11418C15.1519 7.22771 14.9176 7.41997 14.7528 7.66665C14.588 7.91332 14.5 8.20333 14.5 8.5C14.5 8.89783 14.658 9.27936 14.9393 9.56066C15.2206 9.84197 15.6022 10 16 10ZM16 24C15.7033 24 15.4133 24.088 15.1666 24.2528C14.92 24.4176 14.7277 24.6519 14.6142 24.926C14.5006 25.2001 14.4709 25.5017 14.5288 25.7926C14.5867 26.0836 14.7296 26.3509 14.9393 26.5607C15.1491 26.7704 15.4164 26.9133 15.7074 26.9712C15.9983 27.0291 16.2999 26.9993 16.574 26.8858C16.8481 26.7723 17.0824 26.58 17.2472 26.3334C17.412 26.0867 17.5 25.7967 17.5 25.5C17.5 25.1022 17.342 24.7206 17.0607 24.4393C16.7794 24.158 16.3978 24 16 24Z" fill="black"/>
</svg>
